<?xml version="1.0" encoding="UTF-8" standalone="no"?>
<!-- Uploaded to: SVG Repo, www.svgrepo.com, Generator: SVG Repo Mixer Tools -->

<svg
   width="803.73834"
   height="800.93457"
   viewBox="-0.5 0 64.299067 64.074766"
   aria-hidden="true"
   role="img"
   class="iconify iconify--medical-icon"
   preserveAspectRatio="xMidYMid"
   version="1.1"
   id="svg802"
   sodipodi:docname="fire-extinguisher-svgrepo-com.svg"
   inkscape:version="1.2.2 (732a01da63, 2022-12-09)"
   xmlns:inkscape="http://www.inkscape.org/namespaces/inkscape"
   xmlns:sodipodi="http://sodipodi.sourceforge.net/DTD/sodipodi-0.dtd"
   xmlns="http://www.w3.org/2000/svg"
   xmlns:svg="http://www.w3.org/2000/svg">
  <defs
     id="defs806" />
  <sodipodi:namedview
     id="namedview804"
     pagecolor="#ffffff"
     bordercolor="#666666"
     borderopacity="1.0"
     inkscape:showpageshadow="2"
     inkscape:pageopacity="0.0"
     inkscape:pagecheckerboard="0"
     inkscape:deskcolor="#d1d1d1"
     showgrid="false"
     inkscape:zoom="0.37830213"
     inkscape:cx="-162.56847"
     inkscape:cy="701.82"
     inkscape:window-width="1920"
     inkscape:window-height="991"
     inkscape:window-x="-9"
     inkscape:window-y="-9"
     inkscape:window-maximized="1"
     inkscape:current-layer="svg802" />
  <rect
     style="fill:#ffffff;stroke-width:0.0737129;stroke-linecap:round;stroke-miterlimit:4.5;paint-order:fill markers stroke"
     id="rect481"
     width="69.607475"
     height="68.336449"
     x="-3.7897196"
     y="-2.1682243" />
  <path
     d="m 29.231,8.926 a 1.8,1.8 0 1 1 -3.6,0 1.8,1.8 0 0 1 3.6,0 z"
     fill="#000000"
     id="path798"
     style="fill:#ff0000" />
  <path
     d="m 56.263,0.792 c -10e-4,0 -48.862,-0.016 -48.846,0 -4.503,0 -7.036,2.329 -7.036,7.086 v 49.04 c 0,4.45 2.278,6.78 6.776,6.78 h 49.248 c 4.5,0 6.779,-2.215 6.779,-6.78 V 7.878 c 0,-4.641 -2.279,-7.086 -6.92,-7.086 z M 54.93,17.446 39.391,15.097 v -1.358 h -6.35 l -0.009,2.195 c 1.743,0.327 6.319,3.122 6.319,8.552 V 56.04 c 0,0.783 -0.365,2.087 -1.931,2.087 H 23.522 c -1.567,0 -1.931,-1.304 -1.931,-2.087 V 24.486 c 0,-5.43 4.744,-8.226 6.466,-8.552 L 28.05,14.095 c -4.177,1.044 -5.583,3.223 -6.837,4.998 -1.254,1.775 -3.692,0.287 -2.804,-1.488 0.639,-1.862 3.876,-4.92 6.29,-5.811 -0.61,-0.366 -1.299,-1.44 -1.299,-2.641 0,-2.529 1.944,-4.204 4.09,-4.204 2.204,0 3.755,1.831 3.755,3.258 h 1.827 v 2.296 h 6.319 V 9.041 L 54.93,6.782 v 10.665 z"
     fill="#000000"
     id="path800"
     style="fill:#ff2a2a" />
</svg>
