<?xml version="1.0" encoding="UTF-8" standalone="no"?>
<!-- Created with Inkscape (http://www.inkscape.org/) -->

<svg
   width="211.38785mm"
   height="196.38084mm"
   viewBox="0 0 211.38785 196.38084"
   version="1.1"
   id="svg1156"
   inkscape:version="1.2.2 (732a01da63, 2022-12-09)"
   sodipodi:docname="kosciol.svg"
   xmlns:inkscape="http://www.inkscape.org/namespaces/inkscape"
   xmlns:sodipodi="http://sodipodi.sourceforge.net/DTD/sodipodi-0.dtd"
   xmlns="http://www.w3.org/2000/svg"
   xmlns:svg="http://www.w3.org/2000/svg">
  <sodipodi:namedview
     id="namedview1158"
     pagecolor="#ffffff"
     bordercolor="#666666"
     borderopacity="1.0"
     inkscape:showpageshadow="2"
     inkscape:pageopacity="0.0"
     inkscape:pagecheckerboard="0"
     inkscape:deskcolor="#d1d1d1"
     inkscape:document-units="mm"
     showgrid="false"
     inkscape:zoom="0.38128507"
     inkscape:cx="32.783869"
     inkscape:cy="195.39186"
     inkscape:window-width="1920"
     inkscape:window-height="991"
     inkscape:window-x="-9"
     inkscape:window-y="-9"
     inkscape:window-maximized="1"
     inkscape:current-layer="layer1" />
  <defs
     id="defs1153" />
  <g
     inkscape:label="Warstwa 1"
     inkscape:groupmode="layer"
     id="layer1">
    <path
       d="m 49.4178,164.00205 -0.569572,-24.87531 -8.745184,-0.62983 c -6.687782,-0.48164 -8.596444,-1.38331 -8.113014,-3.8327 0.347722,-1.7616 11.356505,-10.05206 24.464086,-18.42327 L 80.286123,101.02058 V 90.609604 c 0,-10.195821 0.293602,-10.70218 14.197739,-24.49997 C 108.11426,52.583667 108.68161,51.633495 108.68161,42.33207 v -9.688596 h -9.127105 c -6.760806,0 -9.127172,-0.788768 -9.127172,-3.042378 0,-2.25361 2.366366,-3.042378 9.127172,-3.042378 9.078805,0 9.127105,-0.03756 9.127105,-7.098885 0,-4.95794 0.9176,-7.098878 3.04241,-7.098878 2.12482,0 3.04234,2.140938 3.04234,7.098878 0,7.061322 0.046,7.098885 9.12717,7.098885 6.76081,0 9.1271,0.788768 9.1271,3.042378 0,2.25361 -2.36629,3.042378 -9.1271,3.042378 h -9.12717 v 8.674467 c 0,8.045838 1.02891,9.695472 14.19782,22.763443 14.15182,14.043373 14.19781,14.125252 14.22403,25.29875 l 0.023,11.209786 24.31273,15.63332 c 26.12218,16.79685 29.90549,21.88934 16.26207,21.88934 h -8.05058 l -0.56957,24.84609 -0.56957,24.84609 -62.30607,0.5363 -62.306069,0.5363 z m 30.868246,-14.66957 v -31.37343 l -12.077829,7.54146 -12.077829,7.54147 -0.09199,23.83196 -0.09199,23.83196 H 68.11592 80.285433 Z m 18.675967,15.86457 c 0.536608,-14.04862 1.094607,-15.88296 5.926387,-19.48243 3.48044,-2.59283 6.82405,-3.50064 9.62215,-2.61255 8.56167,2.71737 10.39702,6.69569 10.39702,22.53682 v 15.06701 h 6.08476 6.08475 V 130.9513 81.196694 l -24.84612,0.569495 -24.846044,0.569495 -0.543508,49.185106 -0.542741,49.18511 h 6.035465 6.035542 z m 70.124457,-7.92291 -0.57187,-23.43177 -12.67654,-8.05532 -12.6766,-8.05535 v 31.48709 31.48711 h 13.24802 13.24802 z"
       style="fill:#000000;stroke-width:2.02825"
       id="path711" />
  </g>
</svg>
