<?xml version="1.0" encoding="UTF-8" standalone="no"?>
<!-- Uploaded to: SVG Repo, www.svgrepo.com, Generator: SVG Repo Mixer Tools -->

<svg
   width="803.73834"
   height="800.93457"
   viewBox="-0.5 0 64.299067 64.074766"
   aria-hidden="true"
   role="img"
   class="iconify iconify--medical-icon"
   preserveAspectRatio="xMidYMid"
   version="1.1"
   id="svg802"
   sodipodi:docname="mauzer.svg"
   inkscape:version="1.2.2 (732a01da63, 2022-12-09)"
   xml:space="preserve"
   xmlns:inkscape="http://www.inkscape.org/namespaces/inkscape"
   xmlns:sodipodi="http://sodipodi.sourceforge.net/DTD/sodipodi-0.dtd"
   xmlns="http://www.w3.org/2000/svg"
   xmlns:svg="http://www.w3.org/2000/svg"><defs
     id="defs806" /><sodipodi:namedview
     id="namedview804"
     pagecolor="#ffffff"
     bordercolor="#666666"
     borderopacity="1.0"
     inkscape:showpageshadow="2"
     inkscape:pageopacity="0.0"
     inkscape:pagecheckerboard="0"
     inkscape:deskcolor="#d1d1d1"
     showgrid="false"
     inkscape:zoom="0.75660426"
     inkscape:cx="389.23915"
     inkscape:cy="407.74288"
     inkscape:window-width="1920"
     inkscape:window-height="991"
     inkscape:window-x="-9"
     inkscape:window-y="-9"
     inkscape:window-maximized="1"
     inkscape:current-layer="svg802" /><rect
     style="fill:#ffffff;stroke:#0000ff;stroke-width:0.0688052;stroke-linecap:round;stroke-miterlimit:4.5;paint-order:fill markers stroke"
     id="rect481"
     width="64.537079"
     height="64.217667"
     x="-0.40863454"
     y="0.049769357" /><path
     style="fill:#0000ff;stroke-width:0.283446"
     d="M 7.6483221,60.021228 C 4.9040071,59.4674 2.5958563,57.609508 1.3490226,54.950769 L 0.60641578,53.367299 0.52448338,36.714818 0.44255098,20.062336 H 2.0122132 3.5818758 v 15.74749 c 0,11.065286 0.098549,16.138248 0.3309456,17.061731 0.4479784,1.779146 2.2121901,3.543346 3.9913369,3.991335 1.8651558,0.469679 45.6127067,0.469679 47.4778627,0 1.779147,-0.447979 3.543347,-2.212189 3.991338,-3.991335 0.232514,-0.923528 0.330945,-5.996445 0.330945,-17.061731 v -15.74749 h 1.569662 1.569663 l -0.08193,16.652482 c -0.08083,16.441689 -0.08968,16.669466 -0.701307,17.994136 -0.846134,1.831761 -2.078661,3.393694 -2.538707,3.217161 -0.207824,-0.07972 -0.347443,0.0098 -0.310352,0.199077 0.03765,0.189222 -0.697877,0.726774 -1.633216,1.19445 l -1.700679,0.850339 -23.526059,0.04429 C 19.412043,60.238638 8.295183,60.15227 7.6472419,60.021069 Z M 7.9232437,54.090021 C 6.271537,53.0829 6.2875476,53.199821 6.1336114,41.017635 L 5.9918868,29.801746 7.2915555,30.73568 c 1.9644936,1.411742 4.7596085,2.61981 7.2426115,3.13029 1.871622,0.384757 2.637392,0.4069 4.779705,0.137843 3.457671,-0.434137 6.338096,-1.427175 12.471646,-4.299463 8.601604,-4.028038 13.364745,-5.032259 18.076999,-3.811192 2.241741,0.580845 5.107571,2.024318 4.849193,2.44239 -0.122008,0.197527 -0.06754,0.238272 0.143167,0.107399 0.193321,-0.119462 0.761432,0.111944 1.319301,0.537552 l 0.979772,0.747369 v 11.054059 c 0,12.204985 -0.0016,12.217417 -1.785303,13.304956 -0.880124,0.536666 -1.593191,0.553274 -23.724882,0.553274 -22.094444,0 -22.8460633,-0.01772 -23.720552,-0.550618 z M 30.456211,46.415596 c 2.852467,-1.73911 1.668415,-6.022418 -1.664817,-6.022418 -1.412505,0 -2.467989,0.703966 -3.017542,2.012614 -0.592469,1.410744 -0.05869,3.020432 1.305857,3.936961 1.186855,0.797303 2.154016,0.81812 3.376502,0.07308 z m 15.503006,-9.346471 c 0.633104,0 2.035245,-1.608835 2.223803,-2.551615 0.245359,-1.226769 -0.437791,-2.702972 -1.57036,-3.393497 -1.17937,-0.719024 -2.105686,-0.724339 -3.262934,-0.01882 -1.823104,1.111608 -2.221048,3.272423 -0.909687,4.939552 0.58306,0.741281 2.066127,1.353581 2.761512,1.140153 0.207602,-0.06421 0.548623,-0.11581 0.757666,-0.11581 z"
     id="path404"
     sodipodi:nodetypes="cccccccsccccscccccccscscccsccccccccccssscccscccccscccccc" /></svg>
