<?xml version="1.0" encoding="UTF-8" standalone="no"?>
<!-- Uploaded to: SVG Repo, www.svgrepo.com, Generator: SVG Repo Mixer Tools -->

<svg
   height="2388.825"
   width="1598.2013"
   version="1.1"
   id="_x32_"
   viewBox="0 0 1022.8488 1528.8481"
   xml:space="preserve"
   sodipodi:docname="namiot-pom-tlo.svg"
   inkscape:version="1.2.2 (732a01da63, 2022-12-09)"
   xmlns:inkscape="http://www.inkscape.org/namespaces/inkscape"
   xmlns:sodipodi="http://sodipodi.sourceforge.net/DTD/sodipodi-0.dtd"
   xmlns="http://www.w3.org/2000/svg"
   xmlns:svg="http://www.w3.org/2000/svg"><defs
   id="defs11" /><sodipodi:namedview
   id="namedview9"
   pagecolor="#ffffff"
   bordercolor="#666666"
   borderopacity="1.0"
   inkscape:showpageshadow="2"
   inkscape:pageopacity="0.0"
   inkscape:pagecheckerboard="0"
   inkscape:deskcolor="#d1d1d1"
   showgrid="false"
   inkscape:zoom="0.18915107"
   inkscape:cx="134.81288"
   inkscape:cy="1567.5301"
   inkscape:window-width="1920"
   inkscape:window-height="991"
   inkscape:window-x="-9"
   inkscape:window-y="-9"
   inkscape:window-maximized="1"
   inkscape:current-layer="_x32_" />
<style
   type="text/css"
   id="style2">
	.st0{fill:#000000;}
</style>
<rect
   style="fill:#ffffff;stroke-width:0.765561;stroke-linecap:round;stroke-miterlimit:4.5;paint-order:fill markers stroke"
   id="rect481"
   width="1006.885"
   height="509.56616"
   x="11.486896"
   y="1016.9477" /><path
   style="fill:#0044aa;stroke-width:1.12391"
   d="m 249.15892,1507.9468 c -50.76087,-2.6989 -97.3107,-21.3607 -138.80204,-55.6456 -17.238156,-14.2443 -31.987125,-30.6065 -44.53565,-49.4071 -8.441372,-12.6473 -9.207291,-13.9951 -17.221889,-30.3108 -11.349344,-23.1041 -18.913943,-48.6114 -21.99868,-74.1776 -1.696567,-14.0618 -1.6992,-46.1858 0,-59.5669 6.491411,-51.2663 29.301235,-98.9675 65.760413,-137.5233 16.537776,-17.4885 42.859776,-36.4118 67.452666,-48.4925 18.75514,-9.213 34.87996,-14.7495 56.19518,-19.2944 13.48594,-2.8756 19.18783,-3.4625 39.89857,-4.1073 13.29009,-0.4138 27.45131,-0.3783 31.46924,0.079 52.52918,5.9764 92.27751,22.6544 132.05865,55.4105 45.39163,37.376 75.75581,93.1826 83.83265,154.0768 1.62981,12.2887 1.5371,45.6032 -0.16689,59.9801 -2.9422,24.8222 -10.63138,50.6595 -21.90804,73.6157 -8.0146,16.3157 -8.78042,17.6635 -17.22189,30.3109 -21.5988,32.3598 -51.81817,59.4482 -87.24403,78.2045 -21.76607,11.5242 -36.7453,16.8409 -63.47366,22.5295 -13.32263,2.8354 -20.96536,3.6602 -44.42103,4.794 -3.09066,0.1494 -11.94142,-0.065 -19.6683,-0.4754 z m -16.85848,-55.9139 c 7.9704,-4.2646 18.5621,-7.7308 33.15508,-10.8502 7.41774,-1.5857 17.28,-4.2326 21.91613,-5.8823 12.79807,-4.5539 31.15341,-14.2501 39.91842,-21.087 4.31616,-3.3666 25.24005,-16.5835 46.49783,-29.3707 21.25749,-12.7873 39.59121,-24.1906 40.7414,-25.3409 3.30203,-3.3021 2.78273,-9.9994 -1.06096,-13.682 -1.73362,-1.661 -4.43944,-3.02 -6.01255,-3.02 -2.70103,0 -18.31924,7.5681 -46.60793,22.5847 -13.16194,6.9869 -15.0332,7.6164 -15.0332,5.0582 0,-1.35 3.61239,-3.7961 15.17263,-10.2742 1.23632,-0.6928 5.78812,-3.4428 10.1151,-6.1111 4.32707,-2.6682 9.38462,-5.7239 11.23905,-6.7901 19.05705,-10.957 39.93299,-23.8293 42.42735,-26.161 4.10546,-3.8373 4.25025,-9.8424 0.33209,-13.7605 -4.32087,-4.3209 -9.27743,-3.686 -21.26605,2.724 -57.42576,30.7041 -63.6397,33.6786 -63.6397,30.4629 0,-0.6869 10.77429,-7.848 11.80799,-7.848 0.23055,0 5.28518,-3.0345 11.232,-6.7434 5.94702,-3.7089 11.00456,-6.7434 11.23906,-6.7434 0.23459,0 5.18203,-2.9659 10.9944,-6.5908 5.81228,-3.6249 11.02684,-6.7859 11.58779,-7.0244 0.56085,-0.2385 5.21663,-2.9184 10.3462,-5.9554 15.35862,-9.093 18.10713,-14.4734 11.01622,-21.5643 -2.10172,-2.1017 -4.70336,-3.8212 -5.78163,-3.8212 -1.84935,0 -42.2707,20.8197 -77.72194,40.032 -4.07754,2.2098 -7.25056,3.3142 -7.6527,2.6637 -1.26914,-2.0535 -2.68514,-1.0535 31.18951,-22.0267 7.87789,-4.8774 16.72855,-10.3048 19.6683,-12.0608 2.93985,-1.756 6.73587,-4.5059 8.43573,-6.1108 6.5766,-6.209 1.9604,-17.1082 -7.24595,-17.1082 -1.30007,0 -10.00067,3.991 -19.33451,8.8689 -9.33385,4.878 -23.49479,12.2428 -31.46896,16.3663 l -14.49811,7.4974 -24.08893,-0.8004 -24.08892,-0.8003 0.93403,-4.0459 c 1.56682,-6.7868 1.00399,-16.4083 -1.15235,-19.6993 -2.65543,-4.0526 -6.87719,-5.569 -10.42791,-3.7456 -1.51708,0.779 -6.46133,7.2327 -10.98717,14.3414 l -8.22878,12.9248 -14.32116,0.3155 c -15.23902,0.3357 -17.83737,-0.3755 -17.21766,-4.7127 0.24465,-1.7132 3.51894,-4.0042 12.13604,-8.492 8.15884,-4.249 13.8014,-8.1293 18.2823,-12.5727 6.10911,-6.058 12.02763,-16.0143 12.05226,-20.2744 0.0188,-3.3637 -4.95308,-8.0267 -8.52148,-7.991 -1.976,0.02 -12.60174,5.0506 -26.87062,12.722 -44.64566,24.0033 -44.98085,24.2125 -55.53974,34.6658 -5.39528,5.3412 -12.30171,11.0597 -15.34761,12.7078 -6.16534,3.336 -18.30326,6.796 -22.82562,6.5067 -1.61844,-0.1034 -4.33347,-0.1347 -6.03343,-0.069 l -3.09075,0.1191 v 43.2702 43.2703 h 7.18635 c 14.45185,0 30.16221,2.3183 42.29881,6.2418 6.57679,2.1261 15.20235,4.5182 19.168,5.3158 l 7.21032,1.4501 6.44468,11.1976 c 3.5447,6.1587 10.87819,19.124 16.2966,28.8118 l 9.85192,17.6142 5.05754,-2.9479 c 2.7817,-1.6215 7.33349,-4.1659 10.11519,-5.6542 z m -63.50055,-60.9975 c -16.59757,-5.4621 -27.50999,-7.8449 -39.05565,-8.5278 l -12.08198,-0.7146 v -35.1258 -35.1257 l 5.90056,-0.798 c 7.86219,-1.0633 18.75034,-5.2329 25.29958,-9.6883 2.92969,-1.9932 9.15624,-7.4507 13.83665,-12.128 8.41411,-8.4086 10.35852,-9.6574 38.69404,-24.8532 30.32713,-16.2637 35.79274,-19.0386 36.36741,-18.464 1.12706,1.127 -4.29435,10.1533 -8.62368,14.3582 -2.27802,2.2124 -9.1994,6.627 -15.38081,9.8102 -13.54706,6.9762 -17.42047,10.6657 -17.42047,16.5939 0,9.4374 5.50689,12.5953 21.9638,12.5953 h 11.96031 l -2.07031,3.3662 c -18.43019,29.9661 -20.4817,34.0704 -22.96939,45.9509 -2.76026,13.183 -13.91093,27.8156 -25.83062,33.8965 -2.42431,1.2368 -4.40803,2.5581 -4.40803,2.9361 0,0.3781 1.05279,2.3909 2.3395,4.4728 2.20167,3.5621 2.21812,3.7818 0.28104,3.7249 -1.13223,-0.033 -5.09309,-1.0591 -8.80195,-2.2796 z m 81.76394,-65.8497 c -2.69125,-1.0644 -1.36288,-5.166 5.05755,-15.6174 l 6.46245,-10.5197 5.61952,-0.035 c 3.09076,-0.02 11.3233,0.2933 18.29433,0.695 l 12.6748,0.7303 -4.80744,2.7747 c -2.64405,1.526 -6.95702,3.9767 -9.58414,5.446 -2.62712,1.4692 -6.92599,3.8727 -9.55311,5.3411 -2.62713,1.4684 -7.91071,4.4604 -11.74171,6.6489 -7.71344,4.4067 -10.33229,5.3631 -12.42225,4.5365 z m 46.6982,-63.5317 c 2.46587,-2.4659 1.6142,-6.4091 -1.5561,-7.2049 -4.25223,-1.0672 -6.92909,1.8764 -5.18598,5.7023 1.38158,3.032 4.51446,3.7302 6.74208,1.5026 z m -36.67459,-9.2951 c 0.96731,-2.123 0.92914,-3.1811 -0.16154,-4.4956 -3.60685,-4.3459 -10.54628,0.07 -7.89509,5.0243 1.74245,3.2554 6.47402,2.945 8.05663,-0.5287 z m 75.06727,1.1446 c 2.98573,-3.5974 -1.39945,-9.1235 -5.29373,-6.6712 -3.89118,2.4506 -2.50489,8.3031 1.96679,8.3031 1.08494,0 2.58218,-0.7343 3.32694,-1.6319 z m -38.39268,-9.8319 c 0.74175,-0.7418 1.34867,-2.5023 1.34867,-3.9123 0,-3.082 -4.71764,-4.754 -7.31994,-2.5942 -3.15046,2.6147 -1.26632,7.8552 2.82429,7.8552 0.98903,0 2.40513,-0.6069 3.14698,-1.3487 z m -30.16522,-7.0267 c 0.74476,-0.8975 1.03379,-2.6418 0.64199,-3.8761 -0.89473,-2.8191 -4.67985,-4.1012 -6.83281,-2.3145 -1.67579,1.3908 -2.21812,5.7377 -0.8826,7.0733 1.3357,1.3356 5.68261,0.7932 7.07342,-0.8827 z m 61.63445,0.2833 c 2.22922,-2.2292 1.52874,-5.361 -1.50861,-6.7449 -2.43418,-1.1091 -3.20001,-0.9594 -5.17037,1.0111 -1.91038,1.9104 -2.09081,2.7281 -1.03681,4.6977 1.40331,2.6219 5.57054,3.1815 7.71579,1.0361 z m -31.28927,-11.5222 c 2.98573,-3.5975 -1.39945,-9.1236 -5.29374,-6.6712 -3.89118,2.4505 -2.50489,8.303 1.9668,8.303 1.08494,0 2.58217,-0.7343 3.32694,-1.6318 z m -23.56926,-4.5351 c 0.76442,-0.921 1.084,-2.8787 0.71186,-4.3613 -1.2807,-5.1026 -8.56708,-4.2733 -8.56708,0.975 0,4.2819 5.23807,6.5399 7.85522,3.3863 z m 47.69767,-0.095 c 2.42469,-2.4246 2.21323,-4.5367 -0.65534,-6.5459 -4.58414,-3.2108 -9.68221,2.0039 -5.96986,6.1061 2.41303,2.6665 4.27508,2.79 6.6252,0.4398 z m -23.4175,-14.545 c 1.21554,-4.8434 -3.79762,-8.2053 -7.18474,-4.8182 -3.02926,3.0293 -0.66766,7.6425 3.91243,7.6425 1.80046,0 2.77446,-0.8405 3.27231,-2.8243 z m -16.96276,-2.7952 c 1.96322,-2.1692 1.96322,-2.3265 0,-4.4956 -3.28021,-3.6247 -8.42924,-2.2517 -8.42924,2.2478 0,4.4995 5.14903,5.8725 8.42924,2.2478 z m 32.50144,1.5656 c 1.05043,-0.4031 1.77761,-2.0036 1.77761,-3.9122 0,-2.5126 -0.62723,-3.3876 -2.82429,-3.939 -4.84336,-1.2156 -8.20518,3.7976 -4.81825,7.1847 1.49733,1.4972 3.19681,1.6904 5.86493,0.6665 z m -4.96578,-16.0961 c 0,-7.8277 0.42865,-7.9495 27.89708,-7.9322 13.40038,0.01 25.50238,0.3203 26.89319,0.693 2.072,0.5553 2.52877,1.4661 2.52877,5.0422 v 4.3646 h 15.17273 15.17264 v -23.04 -23.04 h -15.17264 -15.17273 v 2.9896 2.9898 l -33.43612,-0.6911 c -37.37093,-0.7724 -38.58554,-0.586 -46.02941,7.0665 -5.1982,5.3439 -7.07502,11.9581 -7.07502,24.9342 v 11.0388 h 14.61076 14.61075 z m 87.66441,-58.5232 v -8.9912 h -15.17264 -15.17273 v 8.9912 8.9913 h 15.17273 15.17264 z"
   id="path432" /><rect
   style="fill:#f39c00;stroke-width:0.464971;stroke-linecap:round;stroke-miterlimit:4.5;paint-order:fill markers stroke;fill-opacity:1"
   id="rect292"
   width="512.65601"
   height="516.70502"
   x="0.65095228"
   y="500.88403" /><g
   id="g6"
   style="fill:#ffffff"
   transform="matrix(0.94687989,0,0,1,11.911425,500.76377)">
	<path
   class="st0"
   d="M 364.559,101.651 H 124.398 L 0,410.349 H 259.408 512 Z M 175.344,381.155 136.987,300.833 104.609,381.155 H 43.25 L 136.987,148.564 248.063,381.155 Z M 153.948,130.854 h 192.194 l 119.553,250.301 h -192.21 z"
   id="path4"
   style="fill:#ffffff" />
</g>
<rect
   style="fill:#ff0000;stroke-width:0.460897;stroke-linecap:round;stroke-miterlimit:4.5;paint-order:fill markers stroke"
   id="rect790"
   width="507.89993"
   height="516.40228"
   x="512.43726"
   y="500.75134" /><g
   id="g436"
   transform="matrix(1.0376695,0,0,0.991444,-91.633767,486.15584)"><line
     id="primary"
     x1="649.11548"
     y1="461.95709"
     x2="990.44885"
     y2="376.62378"
     style="fill:none;stroke:#ffffff;stroke-width:42.6667px;stroke-linecap:round;stroke-linejoin:round" /><path
     id="primary-2"
     data-name="primary"
     d="M 990.44884,461.95708 649.1155,376.62375 m 270.29334,-142.08 a 153.17333,153.17333 0 0 0 -28.5867,-85.33333 70.186666,70.186666 0 0 1 -28.3733,42.66667 147.62666,147.62666 0 0 0 -70.8267,-113.919995 c 0,85.333325 -71.46664,85.333325 -71.46664,156.373325 a 97.706665,97.706665 0 0 0 99.62664,99.62666 c 85.3334,0 99.6267,-54.82666 99.6267,-99.41333 z"
     style="fill:none;stroke:#ffffff;stroke-width:42.6667px;stroke-linecap:round;stroke-linejoin:round" /></g><circle
   style="fill:#ff0000;stroke:#000000;stroke-width:8.55188;stroke-linecap:round;stroke-miterlimit:4.5;stroke-dasharray:none;stroke-opacity:1;paint-order:fill markers stroke"
   id="path791"
   cx="237.18773"
   cy="265.24713"
   r="86.487976" /><path
   id="path798"
   style="fill:#ff0000;stroke:none;stroke-width:7.60037"
   d="m 690.58435,1028.8436 c -65.26098,0 -117.45526,0.01 -117.40967,0.053 -34.22446,0 -53.47622,17.7017 -53.47622,53.8567 v 372.7218 c 0,33.8217 17.31452,51.5301 51.50098,51.5301 h 374.30324 c 34.20164,0 51.52276,-16.8344 51.52276,-51.5301 v -372.7218 c 0,-35.2734 -17.32161,-53.8567 -52.59486,-53.8567 h -0.01 c 0,0 -145.07056,-0.048 -253.83894,-0.053 z m 35.15326,31.6477 c 16.75124,0 28.53959,13.9171 28.53959,24.7628 h 13.88627 v 17.4502 h 48.02577 v -11.1124 l 118.10252,-17.1682 v 81.0494 l -118.10252,-17.8525 v -10.3211 h -48.26158 l -0.0681,16.682 c 13.24748,2.4853 48.02694,23.7282 48.02694,64.9982 v 239.8226 c 0,5.9511 -2.77414,15.8628 -14.67637,15.8628 H 695.5802 c -11.90971,0 -14.67637,-9.9117 -14.67637,-15.8628 v -239.8226 c 0,-41.27 36.05626,-62.5205 49.14407,-64.9982 l -0.0515,-13.9763 c -31.74801,7.9349 -42.43441,24.496 -51.96537,37.9867 -9.53086,13.4907 -28.06105,2.1813 -21.31192,-11.3093 4.8566,-14.1519 29.4597,-37.3945 47.80698,-44.1665 -4.63625,-2.7817 -9.87384,-10.9441 -9.87384,-20.072 0,-19.2214 14.77575,-31.9528 31.08609,-31.9528 z m -0.62604,16.5471 a 13.680683,13.680683 0 0 0 -13.50343,13.6796 13.680891,13.680891 0 0 0 27.36178,0 13.680683,13.680683 0 0 0 -13.85835,-13.6796 z" /><rect
   style="fill:none;stroke:#000000;stroke-width:12.8532;stroke-linecap:round;stroke-miterlimit:4.5;stroke-dasharray:none;paint-order:fill markers stroke"
   id="rect7057"
   width="1011.9092"
   height="1013.601"
   x="5.6605177"
   y="509.10712" /></svg>
