<?xml version="1.0" encoding="UTF-8" standalone="no"?>
<!-- Uploaded to: SVG Repo, www.svgrepo.com, Generator: SVG Repo Mixer Tools -->

<svg
   height="1022.0447"
   width="2568.4277"
   version="1.1"
   id="_x32_"
   viewBox="0 0 1643.7937 654.10863"
   xml:space="preserve"
   sodipodi:docname="namiot-zolty-tlo.svg"
   inkscape:version="1.2.2 (732a01da63, 2022-12-09)"
   xmlns:inkscape="http://www.inkscape.org/namespaces/inkscape"
   xmlns:sodipodi="http://sodipodi.sourceforge.net/DTD/sodipodi-0.dtd"
   xmlns="http://www.w3.org/2000/svg"
   xmlns:svg="http://www.w3.org/2000/svg"><defs
   id="defs11" /><sodipodi:namedview
   id="namedview9"
   pagecolor="#ffffff"
   bordercolor="#666666"
   borderopacity="1.0"
   inkscape:showpageshadow="2"
   inkscape:pageopacity="0.0"
   inkscape:pagecheckerboard="0"
   inkscape:deskcolor="#d1d1d1"
   showgrid="false"
   inkscape:zoom="0.18915107"
   inkscape:cx="-335.7105"
   inkscape:cy="7.9301693"
   inkscape:window-width="1920"
   inkscape:window-height="991"
   inkscape:window-x="-9"
   inkscape:window-y="-9"
   inkscape:window-maximized="1"
   inkscape:current-layer="_x32_" />
<style
   type="text/css"
   id="style2">
	.st0{fill:#000000;}
</style>
<rect
   style="fill:#ffffff;stroke:#ffffff;stroke-width:0.512;stroke-linecap:round;stroke-miterlimit:4.5;paint-order:fill markers stroke"
   id="rect685"
   width="524.44849"
   height="515.98969"
   x="1114.8761"
   y="140.41685" /><path
   style="fill:#0044aa;stroke-width:1.19534"
   d="m 1358.5781,651.87589 c -53.9872,-2.87039 -103.4957,-22.71832 -147.6242,-59.18239 -18.3338,-15.14961 -34.0202,-32.55182 -47.3663,-52.54737 -8.9779,-13.45114 -9.7925,-14.88466 -18.3165,-32.23736 -12.0707,-24.57255 -20.1161,-51.70106 -23.3969,-78.89228 -1.8044,-14.95552 -1.8072,-49.12129 0,-63.35289 6.904,-54.52472 31.1636,-105.25781 69.9401,-146.2642 17.5889,-18.60012 45.5839,-38.72619 71.7399,-51.57467 19.9472,-9.79863 37.0969,-15.68694 59.7669,-20.52073 14.3431,-3.05835 20.4074,-3.68263 42.4345,-4.3684 14.1348,-0.44005 29.1961,-0.40233 33.4694,0.0839 55.8679,6.35628 98.1426,24.09436 140.4522,58.93234 48.2767,39.75159 80.5708,99.10529 89.161,163.86985 1.7334,13.0698 1.6348,48.50177 -0.1775,63.79249 -3.1292,26.39987 -11.3071,53.8793 -23.3005,78.29461 -8.524,17.3527 -9.3385,18.78622 -18.3165,32.23736 -22.9716,34.4166 -55.1117,63.22672 -92.7892,83.17528 -23.1495,12.2566 -39.0808,17.91124 -67.508,23.96136 -14.1694,3.01562 -22.2979,3.89286 -47.2444,5.09866 -3.2871,0.15894 -12.7004,-0.0685 -20.9184,-0.50553 z m -17.93,-59.46765 c 8.477,-4.5357 19.7419,-8.22222 35.2624,-11.53991 7.8892,-1.68642 18.3783,-4.50168 23.3091,-6.25618 13.6115,-4.84332 33.1335,-15.15583 42.4556,-22.42724 4.5905,-3.58065 26.8443,-17.63752 49.4532,-31.23751 22.6086,-13.59999 42.1076,-25.72815 43.3309,-26.95146 3.5119,-3.512 2.9596,-10.63509 -1.1284,-14.55163 -1.8438,-1.7666 -4.7216,-3.21198 -6.3947,-3.21198 -2.8727,0 -19.4836,8.0491 -49.5703,24.02019 -13.9985,7.43087 -15.9887,8.10052 -15.9887,5.37967 0,-1.4358 3.842,-4.03736 16.137,-10.92729 1.3149,-0.73681 6.156,-3.66158 10.758,-6.49946 4.6021,-2.83788 9.9811,-6.08761 11.9534,-7.22163 20.2683,-11.65349 42.4711,-25.34397 45.124,-27.82383 4.3664,-4.0812 4.5204,-10.46799 0.3532,-14.63512 -4.5955,-4.59555 -9.8671,-3.92029 -22.6177,2.89714 -61.0757,32.65564 -67.6846,35.81915 -67.6846,32.39911 0,-0.7306 11.4591,-8.34682 12.5585,-8.34682 0.2452,0 5.6211,-3.22741 11.9459,-7.17203 6.325,-3.94461 11.704,-7.17202 11.9534,-7.17202 0.2495,0 5.5114,-3.15437 11.6932,-7.00969 6.1817,-3.85531 11.7277,-7.2172 12.3243,-7.47086 0.5965,-0.25365 5.5482,-3.10389 11.0038,-6.33388 16.3348,-9.67101 19.258,-15.39334 11.7164,-22.93493 -2.2353,-2.23528 -5.0023,-4.06414 -6.1491,-4.06414 -1.9669,0 -44.9574,22.14306 -82.6619,42.57646 -4.3367,2.3502 -7.7114,3.52488 -8.1391,2.83299 -1.3498,-2.18405 -2.8558,-1.1205 33.1719,-23.42667 8.3786,-5.18745 17.7918,-10.95981 20.9184,-12.82741 3.1267,-1.86764 7.164,-4.79226 8.9719,-6.49917 6.9946,-6.60366 2.085,-18.19559 -7.7065,-18.19559 -1.3827,0 -10.6363,4.24468 -20.5634,9.43263 -9.9271,5.18795 -24.9881,13.02087 -33.4691,17.40651 l -15.4196,7.97387 -25.62,-0.85121 -25.62,-0.85121 0.9934,-4.30309 c 1.6664,-7.21816 1.0678,-17.45112 -1.2256,-20.95128 -2.8242,-4.31023 -7.3143,-5.92304 -11.0907,-3.98374 -1.6135,0.82859 -6.872,7.69241 -11.6855,15.25292 l -8.7518,13.74638 -15.2314,0.33554 c -16.2076,0.35703 -18.9711,-0.39938 -18.312,-5.0123 0.2602,-1.82208 3.7426,-4.25871 12.9074,-9.03169 8.6774,-4.51905 14.6786,-8.64604 19.4443,-13.37183 6.4974,-6.44302 12.7921,-17.03216 12.8183,-21.56308 0.02,-3.57741 -5.2679,-8.53681 -9.0631,-8.49889 -2.1016,0.0211 -13.4027,5.3716 -28.5785,13.5306 -47.4833,25.529 -47.8398,25.7515 -59.0698,36.86912 -5.7382,5.6807 -13.0836,11.76269 -16.3231,13.51556 -6.5572,3.54802 -19.4666,7.22796 -24.2764,6.92025 -1.7213,-0.11001 -4.6089,-0.14325 -6.4169,-0.0736 l -3.2872,0.12664 v 46.02049 46.0205 h 7.6431 c 15.3704,0 32.0793,2.46564 44.9873,6.63851 6.9948,2.26126 16.1686,4.80539 20.3863,5.65365 l 7.6686,1.54228 6.8543,11.90933 c 3.77,6.55016 11.5696,20.33953 17.3324,30.6431 l 10.4781,18.73372 5.379,-3.13537 c 2.9585,-1.72446 7.7996,-4.43052 10.7581,-6.01348 z m -67.5366,-64.87455 c -17.6525,-5.80934 -29.2585,-8.34349 -41.538,-9.06979 l -12.8499,-0.76003 v -37.35833 -37.35833 l 6.2756,-0.84871 c 8.3619,-1.13087 19.9421,-5.56548 26.9076,-10.30407 3.1159,-2.11984 9.7382,-7.92429 14.7161,-12.8988 8.9489,-8.94305 11.0169,-10.27131 41.1534,-26.43287 32.2547,-17.29741 38.0677,-20.24876 38.6789,-19.63758 1.1987,1.19862 -4.5673,10.79866 -9.1718,15.27079 -2.4228,2.35302 -9.7841,7.04818 -16.3584,10.43369 -14.4081,7.41959 -18.5277,11.34366 -18.5277,17.64867 0,10.03718 5.8569,13.39583 23.3598,13.39583 h 12.7205 l -2.2019,3.58009 c -19.6016,31.87075 -21.7835,36.2359 -24.4293,48.8716 -2.9357,14.02086 -14.7951,29.58341 -27.4724,36.05088 -2.5784,1.31543 -4.6882,2.72068 -4.6882,3.12278 0,0.40212 1.1197,2.5428 2.4882,4.75707 2.3416,3.78847 2.3591,4.02214 0.2989,3.96165 -1.2042,-0.0353 -5.4168,-1.1264 -9.3614,-2.42454 z m 86.9608,-70.03503 c -2.8623,-1.13206 -1.4495,-5.49435 5.379,-16.61007 l 6.8732,-11.18829 5.9767,-0.0377 c 3.2872,-0.0207 12.043,0.31191 19.4571,0.73911 l 13.4804,0.77675 -5.113,2.95103 c -2.8121,1.62306 -7.3992,4.22953 -10.1933,5.79215 -2.7941,1.56265 -7.3662,4.11893 -10.1603,5.68062 -2.7941,1.56171 -8.4135,4.74387 -12.488,7.07145 -8.2037,4.68681 -10.989,5.70398 -13.2118,4.82489 z m 49.6663,-67.5697 c 2.6226,-2.62263 1.7168,-6.81655 -1.655,-7.66285 -4.5225,-1.13503 -7.3695,1.99562 -5.5156,6.06475 1.4694,3.22469 4.8014,3.96729 7.1706,1.5981 z m -39.0056,-9.88591 c 1.0288,-2.25794 0.9882,-3.38327 -0.1718,-4.78135 -3.8361,-4.62213 -11.2166,0.0749 -8.3969,5.34362 1.8532,3.46237 6.8855,3.13216 8.5687,-0.56227 z m 79.8385,1.21736 c 3.1755,-3.82607 -1.4884,-9.70347 -5.6302,-7.09521 -4.1385,2.60632 -2.6641,8.8308 2.0918,8.8308 1.1539,0 2.7463,-0.78102 3.5384,-1.73559 z m -40.8329,-10.45685 c 0.7889,-0.78893 1.4344,-2.66135 1.4344,-4.16092 0,-3.27789 -5.0175,-5.05616 -7.7852,-2.75915 -3.3507,2.78089 -1.3468,8.35447 3.0038,8.35447 1.0519,0 2.558,-0.64548 3.347,-1.4344 z m -32.0825,-7.47327 c 0.7921,-0.95461 1.0995,-2.80976 0.6828,-4.12254 -0.9516,-2.9982 -4.9773,-4.36184 -7.2671,-2.46157 -1.7823,1.47921 -2.3591,6.10235 -0.9387,7.52286 1.4206,1.42051 6.0438,0.84361 7.523,-0.93875 z m 65.5519,0.30124 c 2.3709,-2.37084 1.6259,-5.70169 -1.6045,-7.17354 -2.5889,-1.17961 -3.4034,-1.02037 -5.499,1.07534 -2.0318,2.03177 -2.2237,2.90148 -1.1027,4.9963 1.4925,2.78854 5.9246,3.38367 8.2062,1.1019 z m -33.278,-12.25456 c 3.1755,-3.82607 -1.4884,-9.70347 -5.6302,-7.09521 -4.1385,2.60632 -2.6641,8.8308 2.0918,8.8308 1.1539,0 2.7463,-0.78102 3.5384,-1.73559 z m -25.0673,-4.82325 c 0.813,-0.97961 1.1529,-3.06172 0.7571,-4.6385 -1.3621,-5.42693 -9.1116,-4.54496 -9.1116,1.03697 0,4.55398 5.571,6.95554 8.3545,3.60153 z m 50.7293,-0.10085 c 2.5788,-2.57874 2.3539,-4.82509 -0.697,-6.96202 -4.8755,-3.41488 -10.2976,2.13125 -6.3493,6.49425 2.5664,2.8359 4.5468,2.96735 7.0463,0.46777 z m -24.9059,-15.46954 c 1.2928,-5.15121 -4.039,-8.72682 -7.6414,-5.12443 -3.2218,3.22181 -0.7101,8.1283 4.1611,8.1283 1.9149,0 2.9508,-0.89391 3.4803,-3.00387 z m -18.0409,-2.97284 c 2.088,-2.30702 2.088,-2.47435 0,-4.78135 -3.4887,-3.85511 -8.965,-2.39478 -8.965,2.39068 0,4.78545 5.4763,6.24576 8.965,2.39067 z m 34.5672,1.66511 c 1.1172,-0.42872 1.8906,-2.13099 1.8906,-4.1609 0,-2.67221 -0.6671,-3.60284 -3.0038,-4.18928 -5.1512,-1.29287 -8.7267,4.03893 -5.1245,7.64134 1.5925,1.59236 3.4,1.79777 6.2377,0.70884 z m -5.2814,-17.11912 c 0,-8.32521 0.4559,-8.45483 29.6702,-8.43643 14.2521,0.009 27.1233,0.34067 28.6025,0.73709 2.2037,0.59057 2.6895,1.55928 2.6895,5.36269 v 4.64195 h 16.1371 16.137 v -24.50442 -24.50442 h -16.137 -16.1371 v 3.17973 3.17974 l -35.5613,-0.735 c -39.7462,-0.82151 -41.038,-0.6232 -48.955,7.51561 -5.5286,5.68361 -7.5247,12.71815 -7.5247,26.519 v 11.74043 h 15.5394 15.5394 z m 93.2363,-62.24293 v -9.5627 h -16.137 -16.1371 v 9.5627 9.5627 h 16.1371 16.137 z"
   id="path432" /><rect
   style="fill:#ffcc00;stroke-width:0.477836;stroke-linecap:round;stroke-miterlimit:4.5;paint-order:fill markers stroke"
   id="rect292"
   width="541.41608"
   height="516.70502"
   x="-0.049801469"
   y="140.53709" /><g
   id="g6"
   style="fill:#ffffff"
   transform="translate(11.842386,140.41686)">
	<path
   class="st0"
   d="M 364.559,101.651 H 124.398 L 0,410.349 H 259.408 512 Z M 175.344,381.155 136.987,300.833 104.609,381.155 H 43.25 L 136.987,148.564 248.063,381.155 Z M 153.948,130.854 h 192.194 l 119.553,250.301 h -192.21 z"
   id="path4"
   style="fill:#ffffff" />
</g>
<rect
   style="fill:#ff0000;stroke-width:0.491521;stroke-linecap:round;stroke-miterlimit:4.5;paint-order:fill markers stroke"
   id="rect790"
   width="580.0116"
   height="514.2876"
   x="537.55969"
   y="140.4044" /><g
   id="g436"
   transform="translate(0,123.49917)"><line
     id="primary"
     x1="649.11548"
     y1="461.95709"
     x2="990.44885"
     y2="376.62378"
     style="fill:none;stroke:#ffffff;stroke-width:42.6667px;stroke-linecap:round;stroke-linejoin:round" /><path
     id="primary-2"
     data-name="primary"
     d="M 990.44884,461.95708 649.1155,376.62375 m 270.29334,-142.08 a 153.17333,153.17333 0 0 0 -28.5867,-85.33333 70.186666,70.186666 0 0 1 -28.3733,42.66667 147.62666,147.62666 0 0 0 -70.8267,-113.919995 c 0,85.333325 -71.46664,85.333325 -71.46664,156.373325 a 97.706665,97.706665 0 0 0 99.62664,99.62666 c 85.3334,0 99.6267,-54.82666 99.6267,-99.41333 z"
     style="fill:none;stroke:#ffffff;stroke-width:42.6667px;stroke-linecap:round;stroke-linejoin:round" /></g><circle
   style="fill:#ff0000;stroke:#ffffff;stroke-width:1.26377;stroke-linecap:round;stroke-miterlimit:4.5;paint-order:fill markers stroke"
   id="path791"
   cx="255.94234"
   cy="66.464203"
   r="64.725044" /></svg>
