<?xml version="1.0" encoding="UTF-8" standalone="no"?>
<!-- Uploaded to: SVG Repo, www.svgrepo.com, Generator: SVG Repo Mixer Tools -->

<svg
   width="803.73834"
   height="800.93457"
   viewBox="-0.5 0 64.299067 64.074766"
   aria-hidden="true"
   role="img"
   class="iconify iconify--medical-icon"
   preserveAspectRatio="xMidYMid"
   version="1.1"
   id="svg802"
   sodipodi:docname="natryski.svg"
   inkscape:version="1.2.2 (732a01da63, 2022-12-09)"
   xml:space="preserve"
   xmlns:inkscape="http://www.inkscape.org/namespaces/inkscape"
   xmlns:sodipodi="http://sodipodi.sourceforge.net/DTD/sodipodi-0.dtd"
   xmlns="http://www.w3.org/2000/svg"
   xmlns:svg="http://www.w3.org/2000/svg"><defs
     id="defs806" /><sodipodi:namedview
     id="namedview804"
     pagecolor="#ffffff"
     bordercolor="#666666"
     borderopacity="1.0"
     inkscape:showpageshadow="2"
     inkscape:pageopacity="0.0"
     inkscape:pagecheckerboard="0"
     inkscape:deskcolor="#d1d1d1"
     showgrid="false"
     inkscape:zoom="0.75660426"
     inkscape:cx="390.56085"
     inkscape:cy="407.74288"
     inkscape:window-width="1920"
     inkscape:window-height="991"
     inkscape:window-x="-9"
     inkscape:window-y="-9"
     inkscape:window-maximized="1"
     inkscape:current-layer="svg802" /><rect
     style="fill:#ffffff;stroke-width:0.0685169;stroke-linecap:round;stroke-miterlimit:4.5;paint-order:fill markers stroke"
     id="rect481"
     width="64.42643"
     height="63.789822"
     x="-0.30044514"
     y="0.15795879" /><path
     style="fill:#000080;stroke:#000080;stroke-width:0.48632;stroke-dasharray:none;stroke-opacity:1"
     d="M 2.7333144,62.849328 C 1.7482307,62.500385 1.2473652,62.122778 0.71452184,61.327345 L 0.2325579,60.607866 V 32.06609 3.5243149 L 0.76648474,2.7730487 C 1.0601448,2.3598525 1.6520523,1.8268687 2.0818347,1.5886418 L 2.8632562,1.1554994 H 31.537884 60.212512 l 0.781423,0.4331424 c 0.429781,0.2382269 1.021688,0.7712107 1.31535,1.1844069 l 0.533927,0.7512662 V 32.081826 60.639339 l -0.533927,0.751265 c -0.293662,0.413196 -0.885569,0.94618 -1.31535,1.184407 l -0.781423,0.433142 -28.411558,0.03679 C 8.4110243,63.07522 3.2734366,63.04072 2.7333144,62.849328 Z M 60.182489,61.645657 c 0.314898,-0.129975 0.785887,-0.486806 1.046647,-0.792947 l 0.474107,-0.556622 V 32.081826 3.8675646 L 61.229136,3.3109427 c -0.934272,-1.0968744 1.015758,-1.029275 -29.691252,-1.029275 -30.70700956,0 -28.7569802,-0.067603 -29.6912503,1.029275 L 1.3725273,3.8675646 V 32.081826 60.296088 l 0.4736,0.556027 c 0.9221968,1.082701 -1.02014266,1.015688 29.6535457,1.023089 23.356349,0.0057 28.207102,-0.03318 28.682816,-0.229547 z m -32.370341,-14.793694 -0.04493,-13.297454 -0.394605,-0.05537 -0.394605,-0.05537 v 5.642893 5.642894 h -1.31535 -1.31535 l 0.0038,-7.146839 c 0.0036,-6.563327 0.03015,-7.203424 0.325991,-7.839868 0.38317,-0.824323 0.774282,-1.193724 1.643967,-1.552702 0.891747,-0.368085 9.656376,-0.39318 10.535835,-0.03016 0.729962,0.301305 1.456226,1.152167 1.688415,1.978075 0.110719,0.39383 0.181523,3.35552 0.18212,7.617917 l 9.71e-4,6.973583 h -1.31535 -1.31535 v -5.642893 -5.642894 l -0.394605,0.05537 -0.394605,0.05537 -0.04494,13.297453 -0.04494,13.297454 h -1.575506 -1.575507 l -0.04568,-7.666611 -0.04568,-7.666609 -0.482296,-0.05482 -0.482294,-0.05482 v 7.721432 7.721432 h -1.57733 -1.577332 z M 16.366869,39.184649 c -0.645848,-0.705016 0.424365,-1.677115 1.10554,-1.004185 0.291283,0.287756 0.263087,0.754889 -0.06514,1.079141 -0.368327,0.36387 -0.657484,0.343037 -1.040399,-0.07496 z m 29.23649,-0.03395 c -0.369989,-0.365508 -0.247707,-0.99555 0.235428,-1.213017 0.381859,-0.171879 0.499714,-0.147517 0.820748,0.169627 0.321038,0.317148 0.345692,0.433577 0.171706,0.810813 -0.22013,0.477285 -0.857894,0.598086 -1.227882,0.232577 z M 17.869591,35.604615 c -0.640678,-0.443316 -0.353752,-1.27045 0.440706,-1.27045 0.514821,0 0.838042,0.423698 0.709421,0.929958 -0.130483,0.51358 -0.669405,0.673127 -1.150127,0.340492 z m 26.602567,0.101728 c -0.624293,-0.359214 -0.268256,-1.372175 0.482296,-1.372175 0.762673,0 1.042298,0.759564 0.468485,1.272571 -0.368234,0.329213 -0.523472,0.345477 -0.950781,0.0996 z m -25.286035,-3.72352 c -0.151578,-0.149742 -0.275597,-0.378071 -0.275597,-0.507395 0,-0.329966 0.492771,-0.779655 0.854351,-0.779655 0.713661,0 1.006795,1.051126 0.384837,1.379959 -0.460878,0.243667 -0.640413,0.226357 -0.963591,-0.09291 z M 42.79728,31.873915 c -0.501402,-0.49533 -0.09676,-1.178145 0.698178,-1.178145 0.374646,0 0.513369,0.100949 0.598339,0.435392 0.06345,0.249717 0.01832,0.54526 -0.10582,0.693027 -0.260635,0.310246 -0.899956,0.336945 -1.190692,0.04972 z M 20.675669,28.327831 c -0.640675,-0.443315 -0.353751,-1.27045 0.440708,-1.27045 0.514822,0 0.838041,0.423699 0.709421,0.929959 -0.130482,0.51358 -0.669404,0.673127 -1.150129,0.340491 z m 20.71857,-0.09231 c -0.566911,-0.560048 0.06906,-1.507073 0.848042,-1.262824 0.427492,0.134035 0.634244,0.866005 0.342652,1.213098 -0.260637,0.310246 -0.899956,0.336944 -1.190694,0.04972 z M 30.842772,27.204273 c -2.01676,-0.584252 -2.937574,-2.916947 -1.865095,-4.724839 1.085672,-1.830132 4.113604,-2.011176 5.333384,-0.318892 1.804563,2.503595 -0.527899,5.895558 -3.468289,5.043731 z m 5.290068,-2.087371 c -0.460028,-0.454458 -0.128871,-1.351401 0.498957,-1.351401 0.158681,0 0.431639,0.15624 0.606582,0.347216 0.64585,0.705017 -0.424363,1.677115 -1.105539,1.004185 z m 4.098881,-0.06435 c -0.342374,-0.338227 -0.342616,-0.422399 -0.0026,-0.901985 0.461716,-0.65121 1.305406,-0.396183 1.305406,0.39459 0,0.729611 -0.773103,1.030703 -1.302823,0.507395 z M 21.75168,24.94364 c -0.466472,-0.460827 -0.10582,-1.178145 0.592358,-1.178145 0.524968,0 0.838235,0.422929 0.704161,0.950661 -0.08497,0.334448 -0.223695,0.435392 -0.598339,0.435392 -0.268248,0 -0.582429,-0.09356 -0.69818,-0.207908 z m 3.858361,0 c -0.466475,-0.460827 -0.10582,-1.178145 0.592356,-1.178145 0.524968,0 0.838236,0.422929 0.704161,0.950661 -0.08497,0.334448 -0.223693,0.435392 -0.598338,0.435392 -0.268247,0 -0.582429,-0.09356 -0.698179,-0.207908 z m -2.565559,-3.009708 c -0.323179,-0.319266 -0.340701,-0.496629 -0.09405,-0.951927 0.351675,-0.649154 1.396871,-0.316539 1.396871,0.444532 0,0.729609 -0.773104,1.030703 -1.302823,0.507395 z m 3.507599,0 c -0.529721,-0.523307 -0.224938,-1.287051 0.513613,-1.287051 0.770397,0 1.107091,1.032542 0.44998,1.37996 -0.460878,0.243666 -0.640415,0.226356 -0.963593,-0.09291 z m 9.001433,-0.05389 c -0.363073,-0.29044 -0.384269,-0.377019 -0.193547,-0.79054 0.178067,-0.386088 0.310061,-0.455242 0.782903,-0.41018 0.484174,0.04615 0.577478,0.130203 0.627614,0.565426 0.03918,0.340113 -0.04541,0.586572 -0.252744,0.736341 -0.406665,0.293757 -0.480336,0.286037 -0.964226,-0.101047 z m 3.344036,-0.205228 c -0.15092,-0.278584 -0.131913,-0.451758 0.08556,-0.779655 0.457093,-0.689167 1.323772,-0.454697 1.323772,0.358133 0,0.777449 -1.046885,1.090565 -1.409335,0.421522 z M 24.21577,19.146088 c -0.120569,-0.04806 -0.219225,-0.312044 -0.219225,-0.586626 0,-0.606404 0.527552,-0.962109 1.031646,-0.695592 0.430073,0.22738 0.535038,0.526007 0.354,1.007134 -0.141844,0.376977 -0.624976,0.490917 -1.166421,0.275084 z m 2.949895,-0.209099 c -0.371116,-0.685039 0.36066,-1.421381 1.050242,-1.056795 0.270613,0.143067 0.347461,0.328969 0.306915,0.742437 -0.04704,0.479642 -0.126898,0.558541 -0.61242,0.605006 -0.41287,0.03952 -0.606896,-0.03621 -0.744737,-0.290648 z m 3.84797,0.06621 c -0.549782,-0.654425 0.477912,-1.669677 1.140357,-1.126552 0.314048,0.25748 0.341074,0.889061 0.05033,1.176278 -0.290737,0.287218 -0.930058,0.26052 -1.190693,-0.04972 z m 3.768134,-0.08958 c -0.26282,-0.286897 -0.283429,-0.422343 -0.118628,-0.779656 0.196235,-0.425477 0.598249,-0.539172 1.157212,-0.327273 0.402258,0.152488 0.358617,1.052509 -0.06182,1.274793 -0.475675,0.251491 -0.614449,0.227642 -0.976762,-0.167864 z m 3.112409,-0.02651 c -0.502252,-0.496172 -0.05451,-1.262503 0.675185,-1.155578 0.53249,0.07803 0.828646,0.572275 0.578963,0.966211 -0.235931,0.372243 -0.958581,0.481356 -1.254148,0.189367 z m -0.711514,-2.419675 c -0.329153,-0.120863 -0.395424,-0.255675 -0.350759,-0.713575 0.04819,-0.494027 0.124826,-0.571241 0.613401,-0.617999 0.669065,-0.06403 1.062958,0.441612 0.76806,0.985962 -0.231543,0.427404 -0.532811,0.528424 -1.030702,0.345612 z m -9.227542,-0.250976 c -0.151578,-0.149743 -0.275597,-0.37807 -0.275597,-0.507395 0,-0.129326 0.124021,-0.357652 0.275597,-0.507393 0.529719,-0.523308 1.302823,-0.222217 1.302823,0.507393 0,0.729611 -0.773104,1.030703 -1.302823,0.507395 z m 3.271026,0.0026 c -0.659191,-0.456121 -0.401039,-1.289597 0.399425,-1.289597 0.770398,0 1.107091,1.032542 0.44998,1.37996 -0.426432,0.225456 -0.386917,0.22966 -0.849405,-0.09036 z m 2.772539,-0.06669 c -0.312259,-0.576395 0.0619,-1.08246 0.751535,-1.016462 0.51087,0.04889 0.558331,0.104977 0.558331,0.659832 0,0.554851 -0.04747,0.610941 -0.558331,0.65983 -0.418535,0.04006 -0.606709,-0.03586 -0.751535,-0.3032 z m -8.739406,-0.04476 c -0.471739,-0.466027 -0.104439,-1.178145 0.607659,-1.178145 0.519703,0 0.839849,0.568975 0.584924,1.03954 -0.208145,0.384216 -0.866508,0.460733 -1.192583,0.1386 z m 1.05228,-2.598851 c -0.466058,-0.460416 -0.127424,-1.351402 0.513611,-1.351402 0.36158,0 0.854353,0.449688 0.854353,0.779655 0,0.606018 -0.936894,0.997598 -1.367964,0.571747 z m 2.455319,0 c -0.681175,-0.672929 0.302835,-1.730185 1.016491,-1.092154 0.423116,0.378277 0.444204,0.663933 0.07588,1.027802 -0.328228,0.324253 -0.801085,0.35211 -1.092367,0.06435 z m 2.345082,-0.06435 c -0.353653,-0.34937 -0.346859,-0.468695 0.05455,-0.958425 0.291393,-0.3555 0.384054,-0.378531 0.78921,-0.196167 0.303252,0.136505 0.459051,0.343132 0.459051,0.608832 0,0.765025 -0.759016,1.082982 -1.302822,0.54576 z m 2.390178,0.06435 c -0.466058,-0.460416 -0.127424,-1.351402 0.513612,-1.351402 0.36158,0 0.854352,0.449688 0.854352,0.779655 0,0.606018 -0.936894,0.997598 -1.367964,0.571747 z m 2.428255,-0.04244 c -0.498827,-0.593771 0.189152,-1.597545 0.825043,-1.203752 0.625816,0.38755 0.4007,1.454101 -0.306914,1.454101 -0.169297,0 -0.402454,-0.112661 -0.518129,-0.250349 z m -10.53081,-2.242708 c 0,-0.505462 0.494949,-1.2730912 1.091378,-1.6926452 0.453188,-0.3187912 0.877567,-0.4195958 2.063362,-0.4901156 l 1.492828,-0.088783 0.04829,-2.7287937 0.04831,-2.7287937 h 1.573966 1.573968 v 2.7721085 2.7721084 h 1.362328 c 1.169046,0 1.455117,0.062291 2.01635,0.4390381 0.359714,0.241472 0.813702,0.7482482 1.008867,1.1261702 l 0.354844,0.687128 -1.713521,3.46e-4 c -0.942434,2.05e-4 -3.785194,0.0517 -6.317243,0.114447 -4.271728,0.105854 -4.603725,0.09271 -4.603723,-0.182215 z"
     id="path1783" /></svg>
