<?xml version="1.0" encoding="UTF-8" standalone="no"?>
<!-- Created with Inkscape (http://www.inkscape.org/) -->

<svg
   version="1.1"
   id="svg531"
   width="374"
   height="387"
   viewBox="0 0 374 387"
   sodipodi:docname="ognisko.svg"
   inkscape:version="1.2.2 (732a01da63, 2022-12-09)"
   xmlns:inkscape="http://www.inkscape.org/namespaces/inkscape"
   xmlns:sodipodi="http://sodipodi.sourceforge.net/DTD/sodipodi-0.dtd"
   xmlns="http://www.w3.org/2000/svg"
   xmlns:svg="http://www.w3.org/2000/svg">
  <defs
     id="defs535" />
  <sodipodi:namedview
     id="namedview533"
     pagecolor="#ffffff"
     bordercolor="#666666"
     borderopacity="1.0"
     inkscape:showpageshadow="2"
     inkscape:pageopacity="0.0"
     inkscape:pagecheckerboard="0"
     inkscape:deskcolor="#d1d1d1"
     showgrid="false"
     inkscape:zoom="1.1059432"
     inkscape:cx="23.961449"
     inkscape:cy="134.27453"
     inkscape:window-width="1920"
     inkscape:window-height="991"
     inkscape:window-x="-9"
     inkscape:window-y="-9"
     inkscape:window-maximized="1"
     inkscape:current-layer="g537" />
  <g
     inkscape:groupmode="layer"
     inkscape:label="Image"
     id="g537">
    <path
       style="fill:#000000;stroke-width:1.19544"
       d="m 52.022229,383.20411 c -4.050998,-1.43733 -10.899257,-9.54878 -13.157483,-15.58444 -4.128594,-11.03466 -2.507607,-29.79739 2.859064,-33.09351 1.390448,-0.854 8.983439,-3.02218 16.873317,-4.81822 7.889878,-1.79602 19.724696,-4.54806 26.299596,-6.11565 33.498777,-7.98674 150.246877,-35.17165 150.977527,-35.15526 0.46357,0.0108 6.84899,-6.2602 14.18983,-13.93466 l 13.34695,-13.95357 3.74438,1.55097 c 2.0594,0.85303 4.52862,3.06755 5.48716,4.92116 1.71956,3.32528 1.62977,3.49822 -6.74035,12.9814 -4.66573,5.28619 -7.79293,9.61124 -6.94934,9.61124 0.84358,0 10.66795,-2.47368 21.83192,-5.49707 l 20.29812,-5.49708 2.06551,2.7383 c 4.12193,5.46456 6.3347,20.5569 3.63791,24.81247 -0.85021,1.34163 -34.36091,11.82944 -137.61138,43.06813 l -11.35664,3.43598 -0.59772,-9.11594 -0.59772,-9.11594 -11.82893,23.56262 -11.82894,23.56263 -5.06931,0.76019 c -3.07569,0.46122 -6.10807,0.20425 -7.71063,-0.65342 -2.73914,-1.46594 -2.75821,-1.99524 -0.48485,-13.46095 0.4355,-2.19642 0.15027,-3.28745 -0.85943,-3.28745 -0.8312,0 -14.99502,4.07353 -31.475187,9.05231 -34.747449,10.49744 -33.025854,10.04804 -35.343374,9.22576 z m 229.523721,-14.79 c -23.99838,-7.18964 -51.39368,-15.41257 -60.87842,-18.27316 l -17.245,-5.20108 9.47467,-3.07759 c 11.80322,-3.83397 68.17974,-20.81704 72.23506,-21.76036 1.70425,-0.39643 11.72209,1.40293 23.311,4.18702 31.23581,7.50399 29.06026,6.69621 31.08496,11.54195 0.98424,2.35563 1.78953,5.80545 1.78953,7.66625 0,3.31522 -0.15027,3.39043 -7.47148,3.73917 l -7.47147,0.35591 7.47147,3.90238 c 4.10932,2.1463 7.47148,4.61562 7.47148,5.48737 0,3.3253 -7.25839,15.90898 -11.60095,20.11229 l -4.53744,4.39193 z M 87.885453,310.53375 c -12.06745,-3.57939 -12.48532,-3.82007 -14.6143,-8.4173 -4.699056,-10.14695 -0.352917,-25.18785 8.61873,-29.82727 3.38565,-1.75078 4.78555,-1.55914 26.005827,3.56012 12.33517,2.97579 34.12791,8.22386 48.42831,11.66239 14.30041,3.43853 26.00074,6.55653 26.00074,6.92888 0,0.59485 -14.25394,4.05858 -68.2045,16.57381 l -13.81216,3.20409 z m 66.346557,-40.09834 c -14.71874,-1.93602 -26.61251,-8.02591 -36.65909,-18.77033 -9.7513,-10.42863 -16.1243,-27.05811 -18.903607,-49.32637 -1.2652,-10.13703 -1.16432,-12.5762 0.94491,-22.84706 1.298717,-6.32413 4.340467,-16.27614 6.759447,-22.11557 2.41898,-5.83942 5.9439,-14.39968 7.83317,-19.02281 4.70324,-11.50907 6.32453,-22.44434 4.77021,-32.17406 -0.67702,-4.23788 -1.5804,-8.675933 -2.00752,-9.862343 -0.60192,-1.671865 -0.0368,-1.484827 2.51207,0.831497 6.00487,5.456946 11.76711,14.458456 16.3188,25.492506 2.47453,5.99865 5.04861,11.0898 5.72017,11.31365 1.52744,0.50915 2.53699,-3.4057 7.79597,-30.23126 8.53207,-43.521245 17.4281,-66.166267 32.63981,-83.085344 5.35318,-5.954039 14.03836,-13.1472611 15.87413,-13.1472611 0.44099,0 0.56747,4.4641441 0.2811,9.9203211 -0.61726,11.760242 1.87002,25.37407 6.37617,34.899296 1.69156,3.575669 10.18689,15.292938 18.87849,26.038354 23.76542,29.381124 28.19514,36.740434 36.16115,60.076394 2.46246,7.21362 4.68763,13.36908 4.94483,13.67878 0.82959,0.99898 2.60501,-2.66877 8.29647,-17.13938 5.04756,-12.83346 9.8557,-21.07995 12.29074,-21.07995 0.50054,0 1.23034,5.78292 1.62178,12.85094 0.48785,8.80906 2.04284,18.11477 4.94402,29.58704 5.04069,19.9326 5.51104,31.21007 1.89191,45.36075 -5.30084,20.7261 -17.21122,36.61619 -39.38967,52.55131 -9.7704,7.01998 -26.66069,16.25208 -29.73346,16.25208 -0.88511,0 0.84174,-2.86896 3.83743,-6.37546 15.30207,-17.91125 17.88307,-43.90138 6.59867,-66.44693 -2.54112,-5.07698 -5.62407,-10.13935 -6.85099,-11.24971 -2.15287,-1.94831 -2.28366,-1.66353 -3.74399,8.15214 -1.48847,10.00486 -2.63223,12.21092 -4.18864,8.07896 -0.43341,-1.1506 -4.64575,-9.35428 -9.36076,-18.23039 -6.53678,-12.30564 -10.32843,-17.91281 -15.96531,-23.60987 -4.06589,-4.10931 -7.91978,-7.47147 -8.56418,-7.47147 -0.6444,0 -1.81887,5.51395 -2.60992,12.25322 -2.77508,23.64226 -4.88296,30.22284 -14.4664,45.16257 l -6.26359,9.76438 -2.07805,-6.71626 c -2.21546,-7.16039 -5.27184,-12.64647 -7.04553,-12.64647 -0.59502,0 -1.41774,3.09319 -1.82825,6.87376 -0.41053,3.78056 -1.58817,10.89228 -2.61698,15.80382 -3.31748,15.83747 -0.71946,25.61777 10.33665,38.91266 3.26907,3.93104 5.95743,7.55079 5.97413,8.04391 0.0343,1.01537 -1.24658,0.97579 -11.32629,-0.35004 z"
       id="path658" />
  </g>
</svg>
