<?xml version="1.0" encoding="UTF-8" standalone="no"?>
<!-- Uploaded to: SVG Repo, www.svgrepo.com, Generator: SVG Repo Mixer Tools -->

<svg
   width="1592.5234"
   height="1106.542"
   viewBox="0 0 47.775704 33.196259"
   id="Line"
   version="1.1"
   sodipodi:docname="ognisko_z_pkt_ppoz.svg"
   inkscape:version="1.2.2 (732a01da63, 2022-12-09)"
   xmlns:inkscape="http://www.inkscape.org/namespaces/inkscape"
   xmlns:sodipodi="http://sodipodi.sourceforge.net/DTD/sodipodi-0.dtd"
   xmlns="http://www.w3.org/2000/svg"
   xmlns:svg="http://www.w3.org/2000/svg">
  <defs
     id="defs619" />
  <sodipodi:namedview
     id="namedview617"
     pagecolor="#ffffff"
     bordercolor="#666666"
     borderopacity="1.0"
     inkscape:showpageshadow="2"
     inkscape:pageopacity="0.0"
     inkscape:pagecheckerboard="0"
     inkscape:deskcolor="#d1d1d1"
     showgrid="false"
     inkscape:zoom="0.535"
     inkscape:cx="877.57009"
     inkscape:cy="546.72897"
     inkscape:window-width="1920"
     inkscape:window-height="991"
     inkscape:window-x="-9"
     inkscape:window-y="-9"
     inkscape:window-maximized="1"
     inkscape:current-layer="Line" />
  <rect
     style="fill:#ff0000;stroke-width:0.0215624;stroke-linecap:round;stroke-miterlimit:4.5;paint-order:fill markers stroke"
     id="rect790"
     width="23.969933"
     height="23.949112"
     x="-0.014018658"
     y="9.2523365" />
  <line
     id="primary"
     x1="3.8878505"
     y1="30.252335"
     x2="19.88785"
     y2="26.252337"
     style="fill:none;stroke:#ffffff;stroke-width:2px;stroke-linecap:round;stroke-linejoin:round" />
  <path
     id="primary-2"
     data-name="primary"
     d="m 19.88785,30.252336 -15.9999995,-4 m 12.6699995,-6.66 a 7.18,7.18 0 0 0 -1.34,-4 3.29,3.29 0 0 1 -1.33,2.000001 6.92,6.92 0 0 0 -3.32,-5.340001 c 0,4.000001 -3.3499999,4.000001 -3.3499999,7.33 a 4.58,4.58 0 0 0 4.6699999,4.67 c 4,0 4.67,-2.57 4.67,-4.66 z"
     style="fill:none;stroke:#ffffff;stroke-width:2px;stroke-linecap:round;stroke-linejoin:round" />
  <rect
     style="fill:#ffffff;stroke-width:0.0254849;stroke-linecap:round;stroke-miterlimit:4.5;paint-order:fill markers stroke"
     id="rect481"
     width="23.803736"
     height="23.885914"
     x="23.944088"
     y="9.3341484" />
  <path
     id="path798"
     style="fill:#ff0000;stroke:none;stroke-width:0.366369"
     d="m 32.609881,9.8917693 c -3.145849,-1.72e-4 -5.661827,3.8e-4 -5.659629,0.0026 -1.649759,0 -2.577773,0.8532957 -2.577773,2.5961127 v 17.966717 c 0,1.630342 0.834631,2.483965 2.482558,2.483965 h 18.042949 c 1.648661,0 2.483614,-0.811491 2.483614,-2.483965 V 12.49046 c 0,-1.700318 -0.834975,-2.5961127 -2.535293,-2.5961127 h -3.52e-4 c -2.29e-4,0 -6.992994,-0.0023 -12.236074,-0.0026 z m 1.694531,1.5255467 c 0.807477,0 1.375723,0.670863 1.375723,1.193672 h 0.669375 v 0.841172 h 2.315039 v -0.535664 l 5.693027,-0.827579 v 3.906914 l -5.693027,-0.860566 v -0.497519 h -2.326406 l -0.0033,0.80414 c 0.638581,0.119803 2.315097,1.1438 2.315097,3.133184 v 11.560429 c 0,0.286867 -0.133727,0.764649 -0.707461,0.764649 h -5.091796 c -0.574101,0 -0.707461,-0.477782 -0.707461,-0.764649 V 18.57507 c 0,-1.989384 1.738058,-3.013748 2.368945,-3.133184 l -0.0025,-0.673711 c -1.530386,0.382489 -2.045515,1.180808 -2.504942,1.831114 -0.459427,0.650305 -1.35266,0.105148 -1.027325,-0.545157 0.23411,-0.682179 1.420077,-1.802569 2.304493,-2.129004 -0.223485,-0.134091 -0.475957,-0.527549 -0.475957,-0.967558 0,-0.926548 0.712248,-1.540254 1.498476,-1.540254 z m -0.03018,0.797637 a 0.659465,0.659465 0 0 0 -0.650918,0.659414 0.659473,0.659473 0 0 0 1.318946,0 0.659465,0.659465 0 0 0 -0.668028,-0.659414 z" />
  <circle
     style="fill:#ff0000;stroke:#000000;stroke-width:0.228786;stroke-linecap:round;stroke-miterlimit:4.5;stroke-dasharray:none;stroke-opacity:1;paint-order:fill markers stroke"
     id="path548"
     cx="8.8598137"
     cy="3.757009"
     r="3.549392" />
  <rect
     style="fill:none;stroke:#000000;stroke-width:0.45;stroke-linecap:round;stroke-miterlimit:4.5;stroke-dasharray:none;stroke-opacity:1;paint-order:fill markers stroke"
     id="rect629"
     width="47.687687"
     height="23.911985"
     x="0.058025476"
     y="9.2122307" />
</svg>
