<?xml version="1.0" encoding="UTF-8" standalone="no"?>
<!-- Uploaded to: SVG Repo, www.svgrepo.com, Generator: SVG Repo Mixer Tools -->

<svg
   height="800px"
   width="800px"
   version="1.1"
   id="_x32_"
   viewBox="0 0 512 512"
   xml:space="preserve"
   sodipodi:docname="Punkt-zbiorki-do-ewakuacji.svg"
   inkscape:version="1.2.2 (732a01da63, 2022-12-09)"
   xmlns:inkscape="http://www.inkscape.org/namespaces/inkscape"
   xmlns:sodipodi="http://sodipodi.sourceforge.net/DTD/sodipodi-0.dtd"
   xmlns="http://www.w3.org/2000/svg"
   xmlns:svg="http://www.w3.org/2000/svg"><defs
   id="defs11" /><sodipodi:namedview
   id="namedview9"
   pagecolor="#ffffff"
   bordercolor="#666666"
   borderopacity="1.0"
   inkscape:showpageshadow="2"
   inkscape:pageopacity="0.0"
   inkscape:pagecheckerboard="0"
   inkscape:deskcolor="#d1d1d1"
   showgrid="false"
   inkscape:zoom="0.535"
   inkscape:cx="90.654206"
   inkscape:cy="311.21495"
   inkscape:window-width="1920"
   inkscape:window-height="991"
   inkscape:window-x="-9"
   inkscape:window-y="-9"
   inkscape:window-maximized="1"
   inkscape:current-layer="_x32_" />
<style
   type="text/css"
   id="style2">
	.st0{fill:#000000;}
</style>

<rect
   style="fill:#ffffff;stroke:#ffffff;stroke-width:0.43288;stroke-linecap:round;stroke-miterlimit:4.5;paint-order:fill markers stroke"
   id="rect585"
   width="512.07916"
   height="514.47162"
   x="-1.2358222"
   y="-2.4320843" /><path
   style="fill:#338000;stroke-width:0.499775"
   d="M 0.10033294,256.72601 V 1.3691727 H 256.51453 512.92874 V 256.72601 512.08287 H 256.51453 0.10033294 Z m 510.82517706,0 V 3.3641481 H 256.51453 2.1035721 V 256.72601 510.08789 H 256.51453 510.92551 Z M 27.1432,485.27539 c -4.46e-4,-0.0686 -7.82e-4,-102.91892 -0.0016,-228.55631 L 27.140852,28.287461 256.51463,28.252946 485.88841,28.218432 V 256.6931 485.16776 l -229.37215,0.11616 c -126.15468,0.0639 -229.372513,0.06 -229.372958,-0.008 z m 86.51383,-67.57805 26.66982,-26.55636 v 26.55636 c 0,14.606 0.16733,26.55637 0.37184,26.55637 0.20453,0 5.83862,-5.44083 12.52023,-12.09072 L 165.3673,420.07227 V 383.78483 347.4974 H 128.93719 92.50711 l -12.148375,12.09072 c -6.681608,6.64989 -12.148378,12.26077 -12.148378,12.4686 0,0.20783 11.999841,0.37787 26.666324,0.37787 H 121.543 l -26.788105,26.68114 -26.788111,26.68114 9.256478,9.22842 c 5.09106,5.07563 9.37066,9.22842 9.51021,9.22842 0.139561,0 12.255161,-11.95037 26.923558,-26.55637 z m 259.04519,0 v -26.55636 l 26.79333,26.67935 26.79332,26.67934 9.38842,-9.3497 9.38841,-9.3497 -26.78981,-26.68284 -26.78982,-26.68284 h 26.66632 c 14.66649,0 26.66633,-0.16663 26.66633,-0.37032 0,-0.20367 -5.46335,-5.81453 -12.14079,-12.46859 L 420.53715,347.4974 h -36.43769 -36.43769 v 36.27987 36.27988 l 12.14079,12.09828 c 6.67742,6.65404 12.31153,12.09828 12.52023,12.09828 0.20868,0 0.37943,-11.95037 0.37943,-26.55637 z M 207.93504,365.20332 c 0.79841,-0.41117 2.08308,-1.57185 2.85478,-2.5793 l 1.40312,-1.83172 0.2504,-41.64276 c 0.1828,-30.40081 0.40371,-41.69362 0.81829,-41.83117 0.31233,-0.10363 0.90951,0.15183 1.32705,0.56766 0.66534,0.66258 0.76443,5.82104 0.80168,41.73291 0.0402,38.67529 0.0937,41.06414 0.95366,42.53055 2.98302,5.08659 10.616,5.04123 13.50637,-0.0803 l 1.12288,-1.98967 v -67.15348 c 0,-59.48315 0.0865,-67.18655 0.7576,-67.44299 0.41667,-0.15924 1.09277,-0.0125 1.50242,0.3261 0.64344,0.53179 0.7451,4.52847 0.74672,29.35698 0.002,27.24052 0.051,28.82162 0.94249,30.27755 1.04214,1.70196 3.75309,3.20191 5.78699,3.20191 2.07501,0 5.00129,-1.75316 5.96655,-3.57462 0.81871,-1.54492 0.87001,-3.89741 0.7272,-33.34358 l -0.15367,-31.6814 -1.59999,-3.23596 c -2.94189,-5.94997 -8.54763,-10.23807 -14.91682,-11.41063 -3.73009,-0.68671 -30.24482,-0.71821 -33.83469,-0.0402 -7.87098,1.48655 -14.02458,6.99086 -16.21875,14.50743 -0.71582,2.45215 -0.79497,6.42061 -0.67456,33.8221 l 0.13641,31.04399 1.85357,1.69145 c 1.01945,0.93031 2.42946,1.83541 3.13334,2.01135 3.87634,0.96889 7.93182,-1.96528 8.41589,-6.08895 0.15682,-1.33593 0.28583,-14.51903 0.28668,-29.29576 7.8e-4,-17.48923 0.17877,-27.04329 0.5093,-27.37245 0.27927,-0.27811 0.85856,-0.3716 1.2873,-0.20776 0.69933,0.26725 0.79299,7.25088 0.91008,67.8589 l 0.13053,67.56097 1.04767,1.40805 c 2.53918,3.4126 6.85269,4.63868 10.21951,2.90479 z m 86.16424,-0.37627 c 0.92103,-0.61813 2.13752,-1.90863 2.7033,-2.86777 1.00967,-1.71166 1.03333,-2.50951 1.2791,-43.13966 0.24789,-40.98012 0.26047,-41.39574 1.25202,-41.39574 0.99157,0 1.00414,0.41562 1.25202,41.39574 0.24578,40.63015 0.26944,41.428 1.27911,43.13966 3.07231,5.20837 9.70138,5.3756 13.44872,0.33925 l 1.04766,-1.40805 0.13053,-67.56097 c 0.11507,-59.55569 0.21968,-67.59505 0.8828,-67.84848 0.41373,-0.1581 1.07712,-0.019 1.47421,0.30922 0.6128,0.50649 0.72704,4.97237 0.75575,29.54466 0.0326,27.91504 0.0689,28.99693 1.01465,30.31974 2.50226,3.4996 7.3729,3.86012 10.47065,0.77502 l 1.7981,-1.79077 v -32.03591 -32.03591 l -1.17536,-2.90121 c -2.45182,-6.05194 -8.74559,-11.01559 -15.61174,-12.31236 -3.5671,-0.6737 -30.09132,-0.63767 -33.80449,0.046 -6.36919,1.17256 -11.97493,5.46066 -14.91682,11.41064 l -1.59999,3.23596 -0.13956,31.57587 c -0.12648,28.6155 -0.0614,31.74007 0.69493,33.3272 0.91407,1.91834 3.79299,3.69653 5.9847,3.69653 2.0339,0 4.74485,-1.49996 5.787,-3.20191 0.89151,-1.45594 0.94072,-3.03703 0.94249,-30.27755 10e-4,-24.82851 0.10333,-28.82519 0.74672,-29.35699 0.40965,-0.33859 1.08575,-0.48534 1.50242,-0.32609 0.67106,0.25643 0.75759,7.96241 0.75759,67.46706 v 67.17756 l 1.23031,2.09073 c 0.67668,1.14989 1.97252,2.455 2.87966,2.90023 2.42975,1.19258 5.91277,1.06454 7.93352,-0.29163 z M 218.43621,200.07737 c 3.50161,-1.03559 7.49088,-4.89319 8.69271,-8.40582 3.22546,-9.42719 -3.62296,-19.23324 -13.43227,-19.23324 -2.80552,0 -6.99146,1.54595 -9.28309,3.42843 -3.81688,3.13542 -5.84502,9.54935 -4.53933,14.35544 1.22081,4.49356 5.45504,8.94971 9.56426,10.06549 2.70772,0.73523 6.066,0.65674 8.99772,-0.2103 z m 87.39839,-0.75554 c 2.58712,-1.28673 5.1713,-3.97004 6.60805,-6.86155 0.64118,-1.29037 0.90478,-2.97555 0.90849,-5.80777 0.004,-3.4959 -0.17874,-4.32069 -1.48037,-6.661 -5.56083,-9.9982 -19.91248,-9.93122 -25.19743,0.11761 -1.12725,2.14334 -1.34448,3.19424 -1.35261,6.54339 -0.008,3.28059 0.21207,4.42237 1.23763,6.42221 1.57489,3.07107 4.99606,6.09533 7.97214,7.04725 3.27334,1.04699 8.3066,0.69073 11.3041,-0.80014 z m -43.38262,-25.90262 c 2.84633,-1.21941 5.46469,-3.81096 7.1412,-7.06805 1.49473,-2.90392 1.52894,-8.17631 0.0743,-11.44329 -1.31961,-2.9636 -4.56969,-6.20129 -7.46625,-7.43777 -2.83568,-1.21052 -8.27763,-1.29618 -10.97736,-0.17281 -7.74286,3.22184 -11.22979,12.43325 -7.45696,19.69902 3.53301,6.80392 11.44635,9.52408 18.68512,6.4229 z M 165.3673,129.67476 V 93.394895 L 153.22651,81.296617 c -6.67743,-6.654052 -12.31153,-12.09828 -12.52022,-12.09828 -0.20869,0 -0.37944,11.950362 -0.37944,26.556365 V 122.31106 L 113.53353,95.631716 86.740199,68.952377 l -9.38841,9.349696 -9.388411,9.349701 26.666367,26.559886 c 14.666505,14.60793 26.666345,26.67131 26.666325,26.80752 -3e-5,0.1362 -11.94432,0.19879 -26.542878,0.13906 -14.598558,-0.0597 -26.542835,0.0508 -26.542835,0.24564 0,0.19481 5.463355,5.79842 12.140789,12.45248 l 12.140775,12.09828 h 36.437689 36.43769 z m 267.30305,24.18916 c 6.68159,-6.6499 12.14837,-12.257 12.14837,-12.46022 0,-0.20323 -11.94429,-0.31715 -26.54288,-0.25319 -14.59859,0.064 -26.54289,0.004 -26.54288,-0.13133 0,-0.13621 11.99987,-12.19959 26.66638,-26.80752 l 26.66636,-26.559886 -9.38841,-9.349701 -9.38842,-9.349696 -26.79332,26.679339 -26.79333,26.679344 V 95.754702 c 0,-14.606003 -0.16732,-26.556365 -0.37185,-26.556365 -0.20452,0 -5.83861,5.440826 -12.52022,12.090724 l -12.14838,12.090717 v 36.287432 36.28743 h 36.4301 36.4301 z"
   id="path1327" /></svg>
