<?xml version="1.0" encoding="UTF-8" standalone="no"?>
<!-- Uploaded to: SVG Repo, www.svgrepo.com, Generator: SVG Repo Mixer Tools -->

<svg
   width="803.73834"
   height="800.93457"
   viewBox="-0.5 0 64.299067 64.074766"
   aria-hidden="true"
   role="img"
   class="iconify iconify--medical-icon"
   preserveAspectRatio="xMidYMid"
   version="1.1"
   id="svg802"
   sodipodi:docname="smieci.svg"
   inkscape:version="1.2.2 (732a01da63, 2022-12-09)"
   xml:space="preserve"
   xmlns:inkscape="http://www.inkscape.org/namespaces/inkscape"
   xmlns:sodipodi="http://sodipodi.sourceforge.net/DTD/sodipodi-0.dtd"
   xmlns="http://www.w3.org/2000/svg"
   xmlns:svg="http://www.w3.org/2000/svg"><defs
     id="defs806" /><sodipodi:namedview
     id="namedview804"
     pagecolor="#ffffff"
     bordercolor="#666666"
     borderopacity="1.0"
     inkscape:showpageshadow="2"
     inkscape:pageopacity="0.0"
     inkscape:pagecheckerboard="0"
     inkscape:deskcolor="#d1d1d1"
     showgrid="false"
     inkscape:zoom="0.75660426"
     inkscape:cx="390.56085"
     inkscape:cy="407.74288"
     inkscape:window-width="1920"
     inkscape:window-height="991"
     inkscape:window-x="-9"
     inkscape:window-y="-9"
     inkscape:window-maximized="1"
     inkscape:current-layer="svg802" /><rect
     style="fill:#ffffff;stroke-width:0.0687996;stroke-linecap:round;stroke-miterlimit:4.5;paint-order:fill markers stroke"
     id="rect481"
     width="64.637901"
     height="64.107025"
     x="-0.51191634"
     y="0.052223191" /><path
     style="fill:#000000;stroke-width:0.12202"
     d="m 14.352817,63.549496 c -1.853868,-0.4905 -3.404496,-1.88986 -4.164957,-3.758666 L 9.8498543,58.960199 9.817182,37.264881 9.7845097,15.569563 8.1565158,15.563014 C 6.9008813,15.557747 6.4069486,15.507692 5.9969726,15.343972 5.1869829,15.02049 4.3210077,14.217941 3.9242946,13.423071 3.5983983,12.770039 3.5761499,12.628823 3.5765333,11.212552 3.5769182,9.8040819 3.6005672,9.652322 3.9186239,9.0144122 4.293776,8.2620262 4.9395579,7.6213501 5.7541316,7.19342 6.2795109,6.9174063 6.3138934,6.9156566 11.842623,6.880954 L 17.402747,6.845976 17.334897,6.2757076 C 17.101123,4.3113186 18.385163,2.160774 20.33418,1.2524425 l 0.833292,-0.38834879 h 9.164701 9.164705 l 0.838358,0.39066499 c 1.928506,0.8987048 3.22588,3.0742514 2.994206,5.0209338 l -0.06785,0.5702628 5.560125,0.034993 5.560128,0.034979 0.658798,0.359036 c 1.527165,0.832245 2.186814,2.1888206 2.082669,4.2830047 -0.06949,1.397243 -0.43243,2.283082 -1.22353,2.98628 -0.916047,0.814254 -1.540802,1.006321 -3.393933,1.043382 l -1.629965,0.03263 v 21.260256 c 0,13.876801 -0.04325,21.486673 -0.124887,21.912206 -0.42503,2.218688 -2.29331,4.199524 -4.492521,4.763117 -1.059063,0.271379 -30.87824,0.265802 -31.905516,-0.0061 z m 31.487689,-1.695164 c 1.764993,-0.5078 2.946987,-1.864197 3.186175,-3.656307 0.05954,-0.446169 0.09861,-9.934193 0.08679,-21.084437 l -0.02162,-20.273169 -18.690949,-0.03074 c -14.871553,-0.02458 -18.710953,3.64e-4 -18.788832,0.121037 -0.140658,0.217956 -0.119793,40.139814 0.02161,41.210187 0.182843,1.38494 0.860994,2.480377 1.968283,3.179475 1.162821,0.734155 0.447711,0.70348 16.676953,0.715276 13.265181,0.0094 14.966423,-0.0104 15.561543,-0.181408 z M 18.211795,56.573766 c -0.03315,-0.08539 -0.04565,-8.325063 -0.02834,-18.310355 l 0.03172,-18.155079 h 1.414685 1.414686 v 18.276112 18.276111 l -1.386238,0.03404 c -1.040554,0.02552 -1.401211,-0.0044 -1.44629,-0.121037 z m 10.702405,0 c -0.03317,-0.08539 -0.04565,-8.325063 -0.02834,-18.310355 l 0.03171,-18.155079 h 1.414686 1.414685 v 18.276112 18.276111 l -1.386238,0.03404 c -1.040553,0.02552 -1.401211,-0.0044 -1.44629,-0.121037 z m 10.702404,0 c -0.03315,-0.08539 -0.04565,-8.325063 -0.02834,-18.310355 l 0.03171,-18.155079 h 1.414686 1.414685 v 18.276112 18.276111 l -1.386238,0.03404 c -1.040554,0.02552 -1.401211,-0.0044 -1.44629,-0.121037 z M 54.14784,13.644467 c 0.787518,-0.351896 1.076938,-0.85432 1.155014,-2.005102 0.112732,-1.6618071 -0.17525,-2.3752552 -1.145375,-2.8373114 L 53.627433,8.5495855 H 30.332042 7.036652 L 6.5066062,8.8020536 C 6.2150679,8.9409154 5.8516216,9.2268547 5.6989186,9.437482 5.4493782,9.7816724 5.4212682,9.9614409 5.4212682,11.212344 c 0,1.275565 0.024512,1.425944 0.2953829,1.799353 0.162467,0.224102 0.5222756,0.508853 0.7996049,0.63277 0.4860524,0.217198 1.3449261,0.225284 23.815796,0.225284 22.47087,0 23.329744,-0.008 23.815796,-0.225284 z M 41.500953,5.9266632 C 41.529299,5.2430205 41.481736,4.9430313 41.276592,4.5139009 40.934741,3.7983543 40.26404,3.1316415 39.566836,2.8143011 39.01136,2.5614543 38.901386,2.558429 30.332028,2.558429 c -8.537797,0 -8.681244,0.00398 -9.226212,0.2528938 -1.241578,0.567209 -1.968258,1.6947581 -1.968258,3.0540386 0,0.455627 0.037,0.8649859 0.08265,0.9097166 0.04565,0.044915 5.069136,0.067424 11.163716,0.050439 L 41.464979,6.794781 Z"
     id="path307" /></svg>
