<?xml version="1.0" encoding="UTF-8" standalone="no"?>
<!-- Created with Inkscape (http://www.inkscape.org/) -->

<svg
   width="162.89479mm"
   height="183.16241mm"
   viewBox="0 0 162.89479 183.16241"
   version="1.1"
   id="svg755"
   inkscape:version="1.2.2 (732a01da63, 2022-12-09)"
   sodipodi:docname="stacja_kol.svg"
   xmlns:inkscape="http://www.inkscape.org/namespaces/inkscape"
   xmlns:sodipodi="http://sodipodi.sourceforge.net/DTD/sodipodi-0.dtd"
   xmlns="http://www.w3.org/2000/svg"
   xmlns:svg="http://www.w3.org/2000/svg">
  <sodipodi:namedview
     id="namedview757"
     pagecolor="#ffffff"
     bordercolor="#666666"
     borderopacity="1.0"
     inkscape:showpageshadow="2"
     inkscape:pageopacity="0.0"
     inkscape:pagecheckerboard="0"
     inkscape:deskcolor="#d1d1d1"
     inkscape:document-units="mm"
     showgrid="false"
     inkscape:zoom="0.26960926"
     inkscape:cx="584.17875"
     inkscape:cy="721.41439"
     inkscape:window-width="1920"
     inkscape:window-height="991"
     inkscape:window-x="-9"
     inkscape:window-y="-9"
     inkscape:window-maximized="1"
     inkscape:current-layer="layer1" />
  <defs
     id="defs752" />
  <g
     inkscape:label="Warstwa 1"
     inkscape:groupmode="layer"
     id="layer1"
     transform="translate(21.589886,45.14249)">
    <path
       d="m 9.2357813,118.60659 c 3.9202547,-4.57998 7.1277777,-8.99108 7.1277777,-9.80244 0,-0.81145 -2.553746,-2.03618 -5.674906,-2.72173 C 7.5674173,105.39724 1.9644933,101.69 -1.7623327,97.84488 L -8.538412,90.85376 V 38.58282 c 0,-46.5919096 0.38174,-52.85395 3.5153993,-57.63617 7.560643,-11.53903 29.9053297,-17.919138 63.2217747,-18.051957 36.92529,-0.147576 59.308008,6.825623 66.235948,20.634157 3.02358,6.02646 3.48355,13.1939104 3.48626,54.32008 0.002,35.86853 -0.6671,48.9821 -2.75658,53.98245 -2.79318,6.68513 -13.92283,15.18092 -19.88717,15.18092 -4.59588,0 -4.16949,1.19695 3.96137,11.11956 l 7.21248,8.80194 -6.71441,-0.0798 c -5.63214,-0.0678 -7.97131,-1.67266 -14.511338,-9.96079 l -7.79684,-9.88083 H 59.327262 31.226056 l -7.889976,9.96072 c -6.652146,8.39806 -8.936338,9.96079 -14.5590647,9.96079 H 2.1080033 Z M 25.925896,80.71588 C 30.179246,76.46245 28.759956,67.55164 23.254462,63.94431 13.007029,57.22997 1.3004003,70.18211 9.4636203,79.2024 13.408421,83.56132 22.266078,84.37562 25.925896,80.71588 Z M 110.094,78.93661 c 5.13573,-9.59614 -4.58111,-20.81629 -13.768868,-15.89914 -5.23556,2.80198 -7.31315,10.37949 -4.35914,15.89914 1.59879,2.98729 4.16918,4.16986 9.064038,4.16986 4.89479,0 7.46518,-1.18257 9.06397,-4.16986 z M 51.226162,14.37716 V -5.5443396 H 28.316476 5.4067063 L 4.8261903,12.22737 c -0.319246,9.77444 -0.112188,18.99275 0.460799,20.48515 0.811744,2.11554 5.9880527,2.58921 23.4902867,2.1498 l 22.449036,-0.56396 z m 62.354398,18.52706 c 2.7206,-2.7206 3.29697,-32.9396796 0.70626,-37.0228696 -1.20312,-1.8962 -7.51291,-2.41196 -24.373338,-1.99212 l -22.74992,0.56621 -0.58052,17.7716996 c -0.31924,9.77444 -0.12348,18.96324 0.4352,20.41958 1.3641,3.55492 43.034268,3.7851 46.562168,0.2575 z"
       style="fill:#000000;stroke-width:1.99215"
       id="path673" />
  </g>
</svg>
