<?xml version="1.0" encoding="UTF-8" standalone="no"?>
<!-- Uploaded to: SVG Repo, www.svgrepo.com, Generator: SVG Repo Mixer Tools -->

<svg
   width="1607.3289"
   height="808.86475"
   viewBox="-0.5 0 128.58631 64.70918"
   aria-hidden="true"
   role="img"
   class="iconify iconify--medical-icon"
   preserveAspectRatio="xMidYMid"
   version="1.1"
   id="svg802"
   sodipodi:docname="toalety.svg"
   inkscape:version="1.2.2 (732a01da63, 2022-12-09)"
   xml:space="preserve"
   xmlns:inkscape="http://www.inkscape.org/namespaces/inkscape"
   xmlns:sodipodi="http://sodipodi.sourceforge.net/DTD/sodipodi-0.dtd"
   xmlns="http://www.w3.org/2000/svg"
   xmlns:svg="http://www.w3.org/2000/svg"><defs
     id="defs806" /><sodipodi:namedview
     id="namedview804"
     pagecolor="#ffffff"
     bordercolor="#666666"
     borderopacity="1.0"
     inkscape:showpageshadow="2"
     inkscape:pageopacity="0.0"
     inkscape:pagecheckerboard="0"
     inkscape:deskcolor="#d1d1d1"
     showgrid="false"
     inkscape:zoom="0.37830213"
     inkscape:cx="48.902712"
     inkscape:cy="249.80034"
     inkscape:window-width="1920"
     inkscape:window-height="991"
     inkscape:window-x="-9"
     inkscape:window-y="-9"
     inkscape:window-maximized="1"
     inkscape:current-layer="svg802" /><rect
     style="fill:#ffffff;stroke:#ffffff;stroke-width:0.064;stroke-linecap:round;stroke-miterlimit:4.5;paint-order:fill markers stroke"
     id="rect549"
     width="64.075775"
     height="64.498711"
     x="63.998711"
     y="0" /><rect
     style="fill:#0044aa;stroke:#0000ff;stroke-width:0.0692568;stroke-linecap:round;stroke-miterlimit:4.5;paint-order:fill markers stroke"
     id="rect481"
     width="64.642365"
     height="64.957367"
     x="-0.51414436"
     y="0.15573071" /><path
     style="fill:#ffffff;stroke-width:1.01208001;stroke:#ffffff;stroke-opacity:1;stroke-dasharray:none"
     d="m 17.637095,62.038395 c -0.499601,-0.475261 -0.675052,-1.019145 -0.547719,-1.697888 0.04816,-0.256682 0.406214,-0.790862 1.030752,-1.537747 3.374459,-4.035521 4.888698,-8.106825 4.208588,-11.315548 -0.239109,-1.128099 -0.602251,-1.900312 -0.972004,-2.066938 -0.682113,-0.30739 -2.334622,-1.356172 -3.212754,-2.039006 -2.966349,-2.306627 -4.745398,-5.12592 -5.172823,-8.197466 l -0.139726,-1.004105 -1.92795,-0.04421 C 9.1970308,34.096356 8.9202698,34.062177 8.4947411,33.837963 7.861929,33.504532 7.2350723,32.757997 7.077456,32.150089 7.0078119,31.881481 6.5294122,28.449852 6.0143453,24.524248 3.7325243,7.1332515 3.9538592,8.607962 3.5704973,8.2413586 2.9093761,7.6091392 2.8245262,7.3161049 2.8245262,5.6651007 c 0,-1.3225035 0.030799,-1.5660329 0.2495217,-1.972957 0.2422918,-0.4507744 0.694336,-0.8634403 1.1190566,-1.0215743 0.1144081,-0.042597 4.5131493,-0.079935 9.7749805,-0.082973 9.232948,-0.00533 9.582257,0.00231 10.004939,0.2187519 0.928537,0.4754816 1.245088,1.3342191 1.170662,3.1757794 -0.05134,1.2703399 -0.197395,1.7093608 -0.734307,2.2072114 l -0.28964,0.2685693 0.02957,11.7179576 0.02957,11.717956 0.319155,0.03673 0.319155,0.03672 v -1.614247 c 0,-1.45559 0.02594,-1.663314 0.264019,-2.113512 0.155707,-0.294447 0.428729,-0.587602 0.665512,-0.714592 0.38532,-0.206649 1.026082,-0.215322 15.905161,-0.215322 17.205928,0 16.08135,-0.05105 17.044855,0.77368 1.7111,1.464635 1.463257,4.520338 -0.452675,5.581141 -0.532336,0.29474 -0.579726,0.357246 -0.637395,0.840669 -0.537375,4.504738 -3.126111,7.949984 -8.017078,10.669617 l -1.270999,0.706742 -0.05803,7.223083 -0.05803,7.223083 -0.273267,0.549903 c -0.304735,0.61323 -0.90668,1.196176 -1.484424,1.437573 -0.31685,0.132388 -2.763645,0.159566 -14.36552,0.159566 H 18.095702 Z M 45.838188,60.07776 c 0.129842,-0.156372 0.165349,-1.372426 0.192116,-6.579577 0.01807,-3.513263 0.0083,-6.45182 -0.0218,-6.530128 -0.04028,-0.104971 -0.353839,-0.0525 -1.193399,0.19969 -3.55484,1.067816 -6.612031,1.455999 -10.597353,1.345588 -1.510005,-0.04183 -2.967161,-0.155314 -3.98873,-0.31063 -1.55858,-0.236964 -4.121823,-0.839382 -5.168806,-1.214781 -0.281238,-0.100841 -0.523669,-0.16973 -0.538734,-0.153091 -0.01507,0.01664 0.01608,0.291381 0.06922,0.610535 0.386908,2.324038 -0.180971,5.210356 -1.570065,7.980064 -0.639803,1.275699 -2.051242,3.465523 -2.804363,4.350917 l -0.41955,0.49324 h 12.941095 c 11.893562,0 12.953986,-0.01552 13.100375,-0.191827 z M 39.672401,46.054313 c 4.25899,-0.667049 8.036866,-2.065355 10.688581,-3.95617 1.277278,-0.910768 2.823002,-2.455166 3.530098,-3.52707 0.700896,-1.062507 1.319439,-2.668129 1.412732,-3.667186 l 0.06975,-0.746966 H 35.210126 15.046685 l 0.08276,0.609295 c 0.487871,3.591514 3.301486,6.777361 7.963794,9.017379 2.66102,1.278494 5.516381,2.04487 9.093525,2.440692 1.428536,0.158073 6.063011,0.05284 7.485632,-0.169974 z M 21.915787,20.346221 V 8.740592 H 14.081988 6.2481873 l -0.00345,0.261126 c -0.0019,0.1436203 0.6571941,5.274759 1.4647126,11.402532 1.3063244,9.912928 1.493679,11.163798 1.6991739,11.344502 0.2137428,0.187955 0.6886112,0.203098 6.3690882,0.203098 h 6.138127 z m 35.09805,11.442776 c 0.716504,-0.299374 0.851326,-1.541471 0.221127,-2.037188 C 56.934898,29.515779 56.863472,29.51467 41.977875,29.51467 H 27.022264 v 1.141218 c 0,0.627673 0.03482,1.176038 0.07737,1.218591 0.04256,0.04256 6.702961,0.07737 14.800905,0.07737 12.373741,0 14.785739,-0.026 15.113297,-0.162852 z M 22.960294,5.6643846 V 4.7932464 l -8.96535,0.02973 -8.9653486,0.02973 -0.036533,0.6800697 c -0.020102,0.3740383 -0.0087,0.7526719 0.025366,0.841408 0.052117,0.135815 1.4762012,0.1613385 9.0018896,0.1613385 h 8.939978 z"
     id="path380" /><path
     style="fill:#0044aa;stroke-width:0.148426"
     d="M 93.846722,63.844288 C 87.143099,63.48787 80.995604,61.023345 75.516166,56.495587 73.239641,54.614453 71.291855,52.453614 69.634667,49.970757 68.519865,48.300524 68.418727,48.122523 67.360292,45.967831 65.861476,42.916647 64.862477,39.54809 64.45511,36.171745 64.231051,34.314711 64.2307,30.072334 64.454459,28.305191 65.311732,21.534835 68.324025,15.235286 73.138936,10.143505 75.322937,7.8339197 78.7991,5.3348583 82.046891,3.739458 c 2.476864,-1.2167017 4.606353,-1.9478534 7.421277,-2.5480696 1.780994,-0.37975421 2.53401,-0.45727317 5.269107,-0.54242491 1.755132,-0.0546391 3.625294,-0.0499637 4.155916,0.0103898 6.937149,0.78926211 12.186419,2.99180641 17.439999,7.31765421 5.99455,4.9359695 10.00453,12.3059415 11.07116,20.3477845 0.21525,1.622883 0.20301,6.022486 -0.022,7.92114 -0.38856,3.278084 -1.40401,6.690215 -2.89324,9.721873 -1.05843,2.154692 -1.15957,2.332693 -2.27437,4.002926 -2.85238,4.273524 -6.84323,7.850888 -11.52167,10.32791 -2.87448,1.521907 -4.85266,2.224046 -8.38249,2.975292 -1.75941,0.37445 -2.768741,0.483378 -5.866365,0.633102 -0.408171,0.01972 -1.577022,-0.0085 -2.597448,-0.06276 z m -2.226383,-7.384123 c 1.052582,-0.563199 2.451342,-1.020954 4.378553,-1.432915 0.979609,-0.209402 2.282043,-0.558976 2.894299,-0.776831 1.690139,-0.601397 4.114189,-1.881906 5.271729,-2.784801 0.56999,-0.444611 3.33327,-2.190058 6.1406,-3.878774 2.80733,-1.688715 5.22853,-3.194674 5.38043,-3.346575 0.43608,-0.436083 0.3675,-1.32056 -0.14012,-1.806882 -0.22896,-0.219358 -0.58627,-0.398833 -0.79403,-0.398833 -0.35671,0 -2.41928,0.999461 -6.15517,2.982599 -1.73819,0.922693 -1.98532,1.005844 -1.98532,0.667996 0,-0.178277 0.47706,-0.501322 2.00375,-1.356847 0.16327,-0.09148 0.76439,-0.454661 1.33583,-0.807039 0.57144,-0.352383 1.23935,-0.755902 1.48425,-0.896713 2.5167,-1.447022 5.27364,-3.146973 5.60307,-3.454898 0.54215,-0.506764 0.56129,-1.299815 0.0439,-1.817248 -0.57063,-0.570632 -1.22521,-0.486784 -2.80846,0.359739 -7.58379,4.054863 -8.40442,4.447679 -8.40442,4.023009 0,-0.09072 1.42289,-1.036428 1.55938,-1.036428 0.0305,0 0.69797,-0.400749 1.48335,-0.890553 0.78537,-0.489804 1.45329,-0.890553 1.48425,-0.890553 0.031,0 0.68434,-0.391677 1.45193,-0.870394 0.7676,-0.478717 1.45624,-0.896163 1.53032,-0.927659 0.0741,-0.0315 0.68894,-0.385415 1.36637,-0.786483 2.02828,-1.200852 2.39126,-1.911397 1.45482,-2.847839 -0.27755,-0.277556 -0.62115,-0.504647 -0.76355,-0.504647 -0.24422,0 -5.58238,2.749514 -10.26415,5.286738 -0.53849,0.291827 -0.95754,0.437685 -1.01064,0.351774 -0.16761,-0.271194 -0.3546,-0.13913 4.11898,-2.908901 1.04036,-0.644128 2.20921,-1.360883 2.59744,-1.592785 0.38824,-0.231905 0.88956,-0.595056 1.11406,-0.807004 0.86851,-0.819977 0.25887,-2.259354 -0.95695,-2.259354 -0.17169,0 -1.3207,0.527064 -2.55335,1.171253 -1.23266,0.64419 -3.10279,1.616807 -4.15586,2.161373 l -1.91466,0.990121 -3.181251,-0.105697 -3.181248,-0.105698 0.123342,-0.534317 c 0.206911,-0.896281 0.132581,-2.166913 -0.152192,-2.601529 -0.350679,-0.535202 -0.908205,-0.735465 -1.377126,-0.494661 -0.200352,0.102877 -0.853296,0.955168 -1.450989,1.89396 l -1.086715,1.706893 -1.891296,0.04167 c -2.012507,0.04432 -2.35565,-0.04959 -2.273814,-0.622376 0.03232,-0.226249 0.464724,-0.528807 1.602738,-1.12147 1.077473,-0.561132 1.822636,-1.073585 2.414388,-1.660385 0.806784,-0.800032 1.58841,-2.11489 1.591653,-2.677497 0.0026,-0.444208 -0.654124,-1.06002 -1.125359,-1.055311 -0.260962,0.0026 -1.664236,0.666995 -3.548597,1.680101 -5.896038,3.169945 -5.9403,3.197573 -7.33474,4.578053 -0.712507,0.705374 -1.62458,1.460578 -2.026832,1.678231 -0.814215,0.44056 -2.417177,0.897501 -3.014421,0.859293 -0.213733,-0.01373 -0.572281,-0.01781 -0.796774,-0.0091 l -0.408171,0.01577 v 5.714384 5.714383 h 0.949041 c 1.908531,0 3.983289,0.306161 5.586077,0.824309 0.868542,0.280781 2.007667,0.596686 2.531388,0.702016 l 0.952219,0.191504 0.851102,1.478788 c 0.468106,0.813335 1.436583,2.525567 2.15217,3.804963 l 1.301069,2.326176 0.667915,-0.38932 c 0.367353,-0.214127 0.968477,-0.55014 1.33583,-0.746698 z m -8.386044,-8.055498 c -2.191941,-0.72135 -3.633051,-1.036016 -5.157788,-1.126199 l -1.595575,-0.09438 v -4.6388 -4.638797 l 0.779235,-0.105382 c 1.038286,-0.140429 2.476211,-0.691066 3.341113,-1.279462 0.386915,-0.26322 1.209202,-0.983961 1.8273,-1.601647 1.111208,-1.110462 1.36799,-1.275393 5.110056,-3.282181 4.005067,-2.147827 4.726873,-2.514295 4.802761,-2.438407 0.148834,0.148834 -0.567119,1.340875 -1.138867,1.896181 -0.300825,0.292176 -1.214872,0.875175 -2.031213,1.295555 -1.789073,0.921294 -2.300596,1.408545 -2.300596,2.191444 0,1.24632 0.727246,1.663364 2.900591,1.663364 h 1.579501 l -0.273408,0.444542 c -2.433928,3.957402 -2.704868,4.499426 -3.033387,6.068406 -0.364534,1.740976 -1.837117,3.673384 -3.411267,4.476454 -0.320163,0.163342 -0.582115,0.337826 -0.582115,0.387756 0,0.04993 0.139037,0.31574 0.308957,0.590687 0.290734,0.470416 0.292921,0.499432 0.03711,0.49192 -0.14952,-0.0045 -0.6726,-0.139873 -1.162404,-0.301056 z m 10.797959,-8.696279 c -0.355413,-0.140577 -0.180003,-0.682236 0.667915,-2.06248 l 0.853447,-1.389252 0.742127,-0.0046 c 0.408171,-0.0026 1.495369,0.03872 2.415997,0.09178 l 1.67387,0.09644 -0.634891,0.36643 c -0.349189,0.201536 -0.918754,0.525183 -1.265699,0.719216 -0.346944,0.194033 -0.914672,0.511447 -1.261617,0.705365 -0.346945,0.193916 -1.044728,0.589045 -1.550629,0.878063 -1.018678,0.581962 -1.364527,0.708264 -1.64052,0.599109 z m 6.167086,-8.390158 c 0.32565,-0.325652 0.21317,-0.846414 -0.20552,-0.951497 -0.561544,-0.140949 -0.915072,0.247794 -0.684856,0.753061 0.182433,0.400411 0.596186,0.492621 0.890376,0.198436 z m -4.843358,-1.227537 c 0.127738,-0.280369 0.12271,-0.420102 -0.02135,-0.593702 -0.476322,-0.573932 -1.392764,0.0093 -1.042628,0.663519 0.230089,0.429926 0.854966,0.388922 1.063983,-0.06982 z m 9.913588,0.151153 c 0.39429,-0.475085 -0.18482,-1.204884 -0.6991,-0.881015 -0.5139,0.323628 -0.33082,1.096523 0.25974,1.096523 0.14329,0 0.34099,-0.09698 0.43936,-0.215508 z m -5.07023,-1.298433 c 0.098,-0.09796 0.17811,-0.330458 0.17811,-0.516662 0,-0.407018 -0.623029,-0.627827 -0.966698,-0.342605 -0.416068,0.345305 -0.167238,1.037378 0.372992,1.037378 0.130614,0 0.317626,-0.08015 0.415596,-0.178111 z m -3.98372,-0.927958 c 0.09837,-0.118536 0.136533,-0.348887 0.08479,-0.511898 -0.118166,-0.372286 -0.618035,-0.541612 -0.902348,-0.305652 -0.221315,0.183676 -0.292951,0.757731 -0.11657,0.934116 0.176386,0.176385 0.750442,0.104751 0.934117,-0.11657 z m 8.13963,0.0374 c 0.29439,-0.294387 0.20187,-0.707979 -0.19924,-0.890741 -0.32147,-0.146477 -0.4226,-0.126699 -0.68282,0.133528 -0.25229,0.252286 -0.27612,0.360281 -0.1369,0.620394 0.18531,0.346255 0.73564,0.420151 1.01897,0.13683 z m -4.13215,-1.521653 c 0.39429,-0.475084 -0.18482,-1.204883 -0.699101,-0.881015 -0.513897,0.323629 -0.330814,1.096523 0.259745,1.096523 0.143286,0 0.340986,-0.09698 0.439356,-0.215508 z M 97.110485,25.9323 c 0.100948,-0.121634 0.143156,-0.380177 0.09401,-0.575965 -0.169131,-0.673863 -1.131391,-0.564349 -1.131391,0.128759 0,0.56547 0.691741,0.863674 1.03738,0.447205 z m 6.299085,-0.01262 c 0.3202,-0.3202 0.29227,-0.599131 -0.0866,-0.864475 -0.60538,-0.424025 -1.27867,0.264639 -0.78839,0.806395 0.31867,0.352134 0.56457,0.368457 0.87495,0.05807 z m -3.09259,-1.920856 c 0.16054,-0.639629 -0.501516,-1.083614 -0.948828,-0.636303 -0.400053,0.400054 -0.08818,1.009294 0.516662,1.009294 0.237806,0 0.366406,-0.111004 0.432166,-0.372991 z m -2.24013,-0.36914 c 0.259246,-0.286463 0.259246,-0.307239 0,-0.593702 -0.43321,-0.47869 -1.113192,-0.297362 -1.113192,0.296851 0,0.594212 0.679982,0.775542 1.113192,0.296851 z m 4.2922,0.206758 c 0.13872,-0.05323 0.23478,-0.264607 0.23478,-0.516662 0,-0.331809 -0.0829,-0.447365 -0.37299,-0.520183 -0.63963,-0.160541 -1.08362,0.501515 -0.6363,0.948827 0.19772,0.197723 0.42216,0.22323 0.77451,0.08802 z m -0.65577,-2.125687 c 0,-1.033747 0.0566,-1.04984 3.68413,-1.047556 1.76971,0.0012 3.36793,0.0423 3.55161,0.09152 0.27363,0.07332 0.33396,0.193617 0.33396,0.665889 v 0.57639 h 2.00374 2.00375 V 18.954274 15.91155 h -2.00375 -2.00374 v 0.394929 0.394831 l -4.41566,-0.09126 c -4.935332,-0.102005 -5.095727,-0.07738 -6.078769,0.933217 -0.686493,0.705734 -0.934339,1.579218 -0.934339,3.292873 v 1.457815 h 1.929532 1.929536 z m 11.57719,-7.728732 v -1.187404 h -2.00375 -2.00374 v 1.187404 1.187404 h 2.00374 2.00375 z"
     id="path300" /></svg>
